<?xml version="1.0" standalone="no"?><!DOCTYPE svg PUBLIC "-//W3C//DTD SVG 1.1//EN" "http://www.w3.org/Graphics/SVG/1.1/DTD/svg11.dtd"><svg class="icon" width="200px" height="200.00px" viewBox="0 0 1024 1024" version="1.1" xmlns="http://www.w3.org/2000/svg"><path fill="#707070" d="M510.016 891.84c-21.248 0-41.536-6.592-58.816-18.88C126.464 641.216 12.608 508.928 0.128 348.416L0 291.072C14.72 106.816 135.616 12.8 241.664 2.368 257.536 0.768 273.216 0 288.064 0c110.208 0 169.024 45.44 221.952 104.64C562.944 45.44 621.76 0 731.904 0c14.848 0 30.528 0.768 46.464 2.368 106.048 10.304 227.008 104.448 241.472 286.592l0.192 57.408c-12.608 162.56-126.4 294.784-451.2 526.592a101.184 101.184 0 0 1-58.816 18.88zM288.064 53.632a419.2 419.2 0 0 0-41.152 2.112c-84.544 8.32-181.184 86.208-193.28 237.568l0.064 53.12c10.944 139.648 119.168 262.08 428.672 482.88a48.128 48.128 0 0 0 55.168 0c309.568-220.864 417.728-343.232 428.8-485.056v-53.184c-12.16-149.12-108.736-227.008-193.344-235.264a420.48 420.48 0 0 0-41.216-2.112c-93.184 0-139.2 35.264-201.344 109.312l-20.416 24.448-20.608-24.512C427.328 88.896 381.312 53.632 288.064 53.632z"  /></svg>