<?xml version="1.0" standalone="no"?><!DOCTYPE svg PUBLIC "-//W3C//DTD SVG 1.1//EN" "http://www.w3.org/Graphics/SVG/1.1/DTD/svg11.dtd"><svg t="1728217708202" class="icon" viewBox="0 0 1346 1024" version="1.1" xmlns="http://www.w3.org/2000/svg" p-id="4600" xmlns:xlink="http://www.w3.org/1999/xlink" width="262.890625" height="200"><path d="M835.704881 510.299003m-255.149502 0a255.149502 255.149502 0 1 0 510.299003 0 255.149502 255.149502 0 1 0-510.299003 0Z" fill="#FDB201" p-id="4601"></path><path d="M801.684947 34.019934a34.019934 34.019934 0 0 1 34.019934-34.019934 34.019934 34.019934 0 0 1 34.019933 34.019934v105.461794a34.019934 34.019934 0 0 1-34.019933 34.019933 34.019934 34.019934 0 0 1-34.019934-34.019933z m299.375415 71.44186a34.019934 34.019934 0 0 1 47.627907-6.803987 34.019934 34.019934 0 0 1 6.803987 47.627907l-62.936877 85.049834a34.019934 34.019934 0 0 1-47.627907 6.803987 34.019934 34.019934 0 0 1-6.803987-47.627907z m199.016612 224.531561a34.019934 34.019934 0 0 1 42.524917 22.112957 34.019934 34.019934 0 0 1-22.112957 42.524917l-100.358804 32.318937a34.019934 34.019934 0 0 1-42.524917-22.112957 34.019934 34.019934 0 0 1 22.112957-42.524917z m20.41196 294.272426a34.019934 34.019934 0 0 1 22.112957 42.524917 34.019934 34.019934 0 0 1-42.524917 22.112956l-100.358804-32.318936a34.019934 34.019934 0 0 1-22.112957-42.524917 34.019934 34.019934 0 0 1 42.524917-22.112957z m-163.295681 251.747508a34.019934 34.019934 0 0 1-6.803987 47.627907 34.019934 34.019934 0 0 1-47.627907-6.803987l-62.936877-85.049834a34.019934 34.019934 0 0 1 6.803987-47.627907 34.019934 34.019934 0 0 1 47.627907 6.803987z m-642.976745-731.428571a34.019934 34.019934 0 0 1 6.803987-47.627907 34.019934 34.019934 0 0 1 47.627907 6.803986l62.936877 85.049834a34.019934 34.019934 0 0 1-6.803986 47.627907 34.019934 34.019934 0 0 1-47.627907-6.803987z" fill="#FDB201" p-id="4602"></path><path d="M777.870994 790.963455m-233.036545 0a233.036545 233.036545 0 1 0 466.073089 0 233.036545 233.036545 0 1 0-466.073089 0Z" fill="#91E0FC" p-id="4603"></path><path d="M253.964017 559.627907v-10.20598a241.541528 241.541528 0 1 1 447.362126 129.275747A222.830565 222.830565 0 0 1 376.435778 974.671096a233.036545 233.036545 0 1 1-142.883721-416.744186z" fill="#AAE9FF" p-id="4604"></path></svg>