<?xml version="1.0" standalone="no"?><!DOCTYPE svg PUBLIC "-//W3C//DTD SVG 1.1//EN" "http://www.w3.org/Graphics/SVG/1.1/DTD/svg11.dtd"><svg t="1729043583226" class="icon" viewBox="0 0 1024 1024" version="1.1" xmlns="http://www.w3.org/2000/svg" p-id="4731" xmlns:xlink="http://www.w3.org/1999/xlink" width="200" height="200"><path d="M402.432 307.968m-286.5152 0a286.5152 286.5152 0 1 0 573.0304 0 286.5152 286.5152 0 1 0-573.0304 0Z" fill="#9FDFFF" p-id="4732"></path><path d="M731.648 455.91893334m-253.0816 0a253.0816 253.0816 0 1 0 506.1632 0 253.0816 253.0816 0 1 0-506.1632 0Z" fill="#78CCFF" p-id="4733"></path><path d="M268.4416 479.77813334m-229.2224 0a229.2224 229.2224 0 1 0 458.4448 0 229.2224 229.2224 0 1 0-458.4448 0Z" fill="#78CCFF" p-id="4734"></path><path d="M757.9136 693.55519997l-463.2064 0 0-229.2224L757.9136 464.33279997zM804.0448 356.14719998c0-37.8368 27.2896-68.4544 60.928-68.45440001s60.92799999 30.6688 60.92799999 68.4544c0 37.8368-60.928 112.7424-60.92799999 112.7424s-60.928-74.90559999-60.928-112.74239999z" fill="#78CCFF" p-id="4735"></path><path d="M295.59466671 859.8528c0 37.8368-27.2896 68.4544-60.928 68.4544s-60.92799999-30.6688-60.928-68.4544c0-37.8368 60.928-112.7424 60.928-112.7424s60.928 74.90559999 60.928 112.7424zM648.51626672 859.8528c0 37.8368-27.2896 68.4544-60.92800001 68.4544s-60.92799999-30.6688-60.928-68.4544c0-37.8368 60.928-112.7424 60.928-112.7424s60.928 74.90559999 60.92800001 112.7424z" fill="#78CCFF" p-id="4736"></path><path d="M503.66399998 726.91733333c0 35.472-25.584 64.176-57.12 64.176s-57.12-28.752-57.12-64.176 57.12-105.696 57.12-105.696 57.12 70.272 57.12 105.696zM834.52799998 726.91733333c0 35.472-25.584 64.176-57.12 64.176s-57.12-28.752-57.12-64.176 57.12-105.696 57.12-105.696 57.12 70.272 57.12 105.696zM503.66399998 944.35733333c0 35.472-25.584 64.176-57.12 64.176s-57.12-28.752-57.12-64.176 57.12-105.696 57.12-105.696 57.12 70.272 57.12 105.696zM834.52799998 944.35733333c0 35.472-25.584 64.176-57.12 64.176s-57.12-28.752-57.12-64.176 57.12-105.696 57.12-105.696 57.12 70.272 57.12 105.696z" fill="#9FDFFF" p-id="4737"></path></svg>