<?xml version="1.0" standalone="no"?><!DOCTYPE svg PUBLIC "-//W3C//DTD SVG 1.1//EN" "http://www.w3.org/Graphics/SVG/1.1/DTD/svg11.dtd"><svg t="1729044205948" class="icon" viewBox="0 0 1073 1024" version="1.1" xmlns="http://www.w3.org/2000/svg" p-id="4646" xmlns:xlink="http://www.w3.org/1999/xlink" width="209.5703125" height="200"><path d="M826.268772 516.205027m-247.028808 0a247.028808 247.028808 0 1 0 494.057616 0 247.028808 247.028808 0 1 0-494.057616 0Z" fill="#91E0FC" p-id="4647"></path><path d="M269.176218 269.176218v-11.925528a257.25069 257.25069 0 1 1 477.021147 137.995403 236.806926 236.806926 0 0 1-347.543978 316.878333 247.028808 247.028808 0 1 1-151.624579-442.948208z" fill="#AAE9FF" p-id="4648"></path><path d="M730.10356343 932.66224751l29.47899846-7.01880935a4.21128562 4.21128562 0 0 0 4.21128562-5.61504749 5.61504748 5.61504748 0 0 0-5.61504748-2.80752374l-39.30533076 9.8263331-30.88276034-16.84514245 33.69028327-18.24890351 39.30533157 9.82633311h1.40376187a5.61504748 5.61504748 0 0 0 5.61504748-4.21128562 4.21128562 4.21128562 0 0 0-4.21128561-5.61504749l-29.47899848-7.01880935 33.69028409-16.84514164a4.21128562 4.21128562 0 0 0 1.40376188-7.01880936 5.61504748 5.61504748 0 0 0-7.01880936-1.40376186l-35.09404596 18.2489035 8.42257123-26.67147473a4.21128562 4.21128562 0 0 0-4.21128562-5.61504666 5.61504748 5.61504748 0 0 0-5.61504748 2.80752291l-11.23009414 36.49780784-32.28652222 18.24890432v-36.49780783l29.47899847-26.67147473a4.21128562 4.21128562 0 0 0 0-7.01880936 5.61504748 5.61504748 0 0 0-7.01880935 0L682.37566145 854.05158438v-37.90156889a5.61504748 5.61504748 0 0 0-9.8263331 0V854.05158438l-21.05642725-19.65266538a5.61504748 5.61504748 0 0 0-7.01880936 0 4.21128562 4.21128562 0 0 0 0 7.01880934l29.47899848 26.67147474v36.49780783L640.26280613 886.33810659l-11.23009414-36.49780784a5.61504748 5.61504748 0 0 0-5.61504749-2.80752373 4.21128562 4.21128562 0 0 0-4.21128562 5.61504748l8.42257123 26.67147473-35.09404596-18.24890351a5.61504748 5.61504748 0 0 0-7.01880935 1.40376188 4.21128562 4.21128562 0 0 0 1.40376187 7.01880935l35.09404596 18.24890351-29.47899848 7.01880935a4.21128562 4.21128562 0 0 0-4.21128562 5.61504748 5.61504748 5.61504748 0 0 0 5.6150475 2.80752375l39.30533075-9.8263331 33.69028408 16.84514164-29.47899847 15.44138058-39.30533075-8.42257123a5.61504748 5.61504748 0 0 0-5.61504749 2.80752374 4.21128562 4.21128562 0 0 0 2.80752374 5.61504749l29.47899849 7.01880935-39.30533158 21.05642725a4.21128562 4.21128562 0 0 0-2.80752375 5.61504748 5.61504748 5.61504748 0 0 0 4.21128562 2.80752375h2.80752374l39.30533158-21.05642807-8.42257123 26.67147473a4.21128562 4.21128562 0 0 0 4.21128562 5.61504749 5.61504748 5.61504748 0 0 0 5.61504748-2.80752374l11.23009414-36.49780701 29.47899848-15.44138058v32.28652221l-29.47899848 26.67147474a4.21128562 4.21128562 0 0 0 0 7.01880934 5.61504748 5.61504748 0 0 0 7.01880936 0l21.05642724-19.65266537v42.11285449a5.61504748 5.61504748 0 0 0 9.8263331 0v-42.11285449l21.05642725 19.65266537a5.61504748 5.61504748 0 0 0 7.01880935 0 4.21128562 4.21128562 0 0 0 0-7.01880934L682.37566145 950.91115102v-32.28652221l29.47899847 15.44138058 11.23009414 36.49780701a5.61504748 5.61504748 0 0 0 5.61504749 2.80752374 4.21128562 4.21128562 0 0 0 4.21128562-5.61504749l-8.42257123-26.67147473 39.30533157 21.05642807h2.80752374l2.80752375-2.80752375a4.21128562 4.21128562 0 0 0 0-4.2112856L766.60137125 952.31491289z" fill="#D9F5FF" p-id="4649"></path><path d="M441.56769126 946.72095041l33.54054937-7.98584531a4.79150719 4.79150719 0 0 0 4.79150719-6.38867625 6.38867625 6.38867625 0 0 0-6.38867625-3.19433719l-44.72073281 11.1801825-35.13771844-19.16602781 38.33205656-20.76319782 44.72073282 11.18018344h1.59716906a6.38867625 6.38867625 0 0 0 6.38867625-4.79150719 4.79150719 4.79150719 0 0 0-4.79150719-6.38867625l-33.54054937-7.98584437 38.33205656-19.16602875a4.79150719 4.79150719 0 0 0 1.59716906-7.98584531 6.38867625 6.38867625 0 0 0-7.98584531-1.59716813l-39.92922563 20.76319688 9.58301438-30.34621125a4.79150719 4.79150719 0 0 0-4.79150719-6.38867625 6.38867625 6.38867625 0 0 0-6.38867625 3.19433812l-12.77735156 41.52639469-36.7348875 20.76319687v-41.52639468l33.54054937-30.34621125a4.79150719 4.79150719 0 0 0 0-7.98584532 6.38867625 6.38867625 0 0 0-7.98584531 0L387.26394501 857.27948572v-43.12356375a6.38867625 6.38867625 0 0 0-11.18018344 0V857.27948572l-23.957535-22.36036687a6.38867625 6.38867625 0 0 0-7.98584531 0 4.79150719 4.79150719 0 0 0 0 7.98584531l33.54054937 30.34621125v41.52639469L339.34887407 894.01437322l-12.7773525-41.52639469a6.38867625 6.38867625 0 0 0-6.38867531-3.19433812 4.79150719 4.79150719 0 0 0-4.79150719 6.38867625l9.58301344 30.34621125-39.92922469-20.76319781a6.38867625 6.38867625 0 0 0-7.98584531 1.59716906 4.79150719 4.79150719 0 0 0 1.59716906 7.98584531l39.92922563 20.76319781-33.54054938 7.98584438a4.79150719 4.79150719 0 0 0-4.79150719 6.38867625 6.38867625 6.38867625 0 0 0 6.38867625 3.19433812l44.72073188-11.18018343 38.33205656 19.16602875-33.54054937 17.56885875-44.72073282-9.58301344a6.38867625 6.38867625 0 0 0-6.38867531 3.19433719 4.79150719 4.79150719 0 0 0 3.19433813 6.38867625l33.54054937 7.98584531-44.72073281 23.957535a4.79150719 4.79150719 0 0 0-3.19433813 6.38867625 6.38867625 6.38867625 0 0 0 4.79150719 3.19433812h3.19433813l44.72073187-23.957535-9.58301344 30.34621125a4.79150719 4.79150719 0 0 0 4.79150719 6.38867625 6.38867625 6.38867625 0 0 0 6.38867531-3.19433812l12.7773525-41.52639469 33.54054938-17.56885875v36.73488656l-33.54054938 30.34621219a4.79150719 4.79150719 0 0 0 0 7.98584438 6.38867625 6.38867625 0 0 0 7.98584532 0l23.957535-22.36036594v47.91507094a6.38867625 6.38867625 0 0 0 11.18018343 0v-47.91507094l23.957535 22.36036594a6.38867625 6.38867625 0 0 0 7.98584532 0 4.79150719 4.79150719 0 0 0 0-7.98584438L387.26394501 967.48414728v-36.73488656l33.54054937 17.56885875 12.77735157 41.52639469a6.38867625 6.38867625 0 0 0 6.38867625 3.19433812 4.79150719 4.79150719 0 0 0 4.79150718-6.38867625l-9.58301437-30.34621125 44.72073281 23.957535h3.19433813l3.19433812-3.19433812a4.79150719 4.79150719 0 0 0 0-4.79150719L483.09408595 969.08131635z" fill="#9BE5FF" p-id="4650"></path></svg>