<?xml version="1.0" standalone="no"?><!DOCTYPE svg PUBLIC "-//W3C//DTD SVG 1.1//EN" "http://www.w3.org/Graphics/SVG/1.1/DTD/svg11.dtd"><svg t="1729043589051" class="icon" viewBox="0 0 1024 1024" version="1.1" xmlns="http://www.w3.org/2000/svg" p-id="4885" xmlns:xlink="http://www.w3.org/1999/xlink" width="200" height="200"><path d="M409.28 278.05333334m-268.608 0a268.608 268.608 0 1 0 537.216 0 268.608 268.608 0 1 0-537.216 0Z" fill="#9FDFFF" p-id="4886"></path><path d="M724.95786667 473.41871408m-269.95370667 0a269.95370667 269.95370667 0 1 0 539.90741334 0 269.95370667 269.95370667 0 1 0-539.90741334 0Z" fill="#78CCFF" p-id="4887"></path><path d="M262.33066667 500.45866667m-214.896 0a214.896 214.896 0 1 0 429.792 0 214.896 214.896 0 1 0-429.792 0Z" fill="#78CCFF" p-id="4888"></path><path d="M241.45600001 503.12533334h434.256v214.896H241.45600001zM252.49600001 895.28533334c0 35.472-25.584 64.176-57.12 64.176s-57.12-28.752-57.12-64.176 57.12-105.696 57.12-105.696 57.12 70.224 57.12 105.696zM626.27200001 895.28533334c0 35.472-25.584 64.176-57.12 64.176s-57.12-28.752-57.12-64.176 57.12-105.696 57.12-105.696 57.12 70.224 57.12 105.696zM439.36000001 895.28533334c0 35.472-25.584 64.176-57.12 64.176s-57.12-28.752-57.12-64.176 57.12-105.696 57.12-105.696 57.12 70.224 57.12 105.696zM813.18400001 895.28533334c0 35.472-25.584 64.176-57.12 64.176s-57.12-28.752-57.12-64.176 57.12-105.696 57.12-105.696 57.12 70.224 57.12 105.696z" fill="#78CCFF" p-id="4889"></path><path d="M370.21499999 793.66833332c0 33.255-23.985 60.165-53.55 60.165s-53.55-26.955-53.55-60.165 53.55-99.09 53.55-99.09 53.55 65.835 53.55 99.09zM720.62999999 793.66833332c0 33.255-23.985 60.165-53.55 60.165s-53.55-26.955-53.55-60.165 53.55-99.09 53.55-99.09 53.55 65.835 53.55 99.09zM545.39999999 793.66833332c0 33.255-23.985 60.165-53.55 60.165s-53.55-26.955-53.55-60.165 53.55-99.09 53.55-99.09 53.55 65.835 53.55 99.09zM895.85999999 793.66833332c0 33.255-23.985 60.165-53.55 60.165s-53.55-26.955-53.55-60.165 53.55-99.09 53.55-99.09 53.55 65.835 53.55 99.09z" fill="#9FDFFF" p-id="4890"></path></svg>