<?xml version="1.0" standalone="no"?><!DOCTYPE svg PUBLIC "-//W3C//DTD SVG 1.1//EN" "http://www.w3.org/Graphics/SVG/1.1/DTD/svg11.dtd"><svg t="1744610310332" class="icon" viewBox="0 0 1024 1024" version="1.1" xmlns="http://www.w3.org/2000/svg" p-id="4607" xmlns:xlink="http://www.w3.org/1999/xlink" width="200" height="200"><path d="M1010.854587 1011.216778a42.61074 42.61074 0 0 1-60.251587 0L696.472546 757.086324a424.743857 424.743857 0 0 1-269.555541 96.065914C191.322223 853.152238 0.340886 662.170901 0.340886 426.576119 0.340886 190.981337 191.322223 0 426.917005 0 662.511787 0 853.493124 190.981337 853.493124 426.576119a421.420219 421.420219 0 0 1-21.838005 132.71115 42.099411 42.099411 0 0 1-4.964151 14.295903c-1.342238 3.643218-2.407507 7.414269-3.834967 11.014876l-2.407506-2.407506c-7.755155 8.117346-18.620893 13.209329-30.743649 13.209329a42.61074 42.61074 0 0 1-42.61074-42.61074l-0.383497-3.941494c0-11.206625 4.410212-21.326675 11.483594-28.932692l-3.962798-3.941493c7.904292-28.76225 12.463641-58.909348 12.463641-90.185632C766.695046 237.704013 614.212513 85.22148 426.128706 85.22148S85.562366 237.704013 85.562366 425.78782 238.044899 766.35416 426.128706 766.35416a339.394545 339.394545 0 0 0 239.174084-98.239061c0.255664-0.298275 0.426107-0.617856 0.617856-0.937436l61.679046 1.065268 146.580946 146.559641 0.27697-0.27697 136.396979 136.418284a42.61074 42.61074 0 0 1 0 60.272892z" fill="#78fee4" p-id="4608"></path></svg>