<?xml version="1.0" standalone="no"?><!DOCTYPE svg PUBLIC "-//W3C//DTD SVG 1.1//EN" "http://www.w3.org/Graphics/SVG/1.1/DTD/svg11.dtd"><svg t="1729044209613" class="icon" viewBox="0 0 1024 1024" version="1.1" xmlns="http://www.w3.org/2000/svg" p-id="4798" xmlns:xlink="http://www.w3.org/1999/xlink" width="200" height="200"><path d="M115.917 307.968a286.515 286.515 0 1 0 573.03 0 286.515 286.515 0 1 0-573.03 0z" fill="#9FDFFF" p-id="4799"></path><path d="M478.566 498.586a253.082 253.082 0 1 0 506.164 0 253.082 253.082 0 1 0-506.164 0z" fill="#78CCFF" p-id="4800"></path><path d="M39.219 522.445a229.222 229.222 0 1 0 458.445 0 229.222 229.222 0 1 0-458.445 0z" fill="#78CCFF" p-id="4801"></path><path d="M266.086 522.445h463.207v229.222H266.086z" fill="#78CCFF" p-id="4802"></path><path d="M504.00262779 520.4978189l1.54230143-0.38128639c0.06809159-0.01024033 0.12594288-0.0510687 0.16337996-0.10898647 0.03750359-0.05785126 0.04767742-0.12933415 0.02726324-0.19403446a0.26558386 0.26558386 0 0 0-0.31665255-0.17362031l-2.0495307 0.52431866-1.54230143-0.82733958 1.74657626-0.93625957 2.04953067 0.50729575h0.06470033c0.12255159 0.00339128 0.23153805-0.0851145 0.25534352-0.20766609a0.23625924 0.23625924 0 0 0-0.1906432-0.26897512l-1.54230144-0.3813529 1.81127658-0.97030536a0.24038197 0.24038197 0 0 0 0.09528834-0.33360894 0.27336384 0.27336384 0 0 0-0.35063185-0.09535485l-1.81127657 0.98393697 0.41200739-1.42992369a0.2306071 0.2306071 0 0 0-0.02726324-0.19403447 0.23765566 0.23765566 0 0 0-0.16344645-0.10898646c-0.1361832-0.03058803-0.2723664 0.04428614-0.31658603 0.17362028l-0.55497319 1.90656492-1.74650975 0.93625956v-1.8758439l1.49455751-1.38231276c0.05452649-0.04082836 0.0851145-0.10552869 0.0851145-0.1736203s-0.03058803-0.13279194-0.0851145-0.17362027a0.26757872 0.26757872 0 0 0-0.36426347 0l-1.12690275 1.0486373v-1.93728593a0.2726989 0.2726989 0 0 0-0.26219259-0.20427482c-0.12255159 0-0.23147154 0.0851145-0.26212607 0.20427482v1.93721944l-1.12690274-1.04863732a0.26757872 0.26757872 0 0 0-0.36432998 0c-0.05445998 0.04089486-0.0851145 0.10559518-0.08511453 0.17368678s0.03065452 0.13279194 0.08511453 0.1736203l1.49462401 1.38224627v1.85888748l-1.74650977-0.93625955-0.54134154-1.87584389a0.26558386 0.26558386 0 0 0-0.31665256-0.17368679c-0.06809159 0.01024033-0.12594288 0.0510687-0.16337995 0.10891997a0.2306071 0.2306071 0 0 0-0.02726324 0.19410097l0.41194092 1.42992368-1.81121007-0.98393698a0.27442778 0.27442778 0 0 0-0.35069836 0.09535483 0.24038197 0.24038197 0 0 0 0.09535484 0.33360897l1.81121007 0.97030537-1.55586655 0.36432997c-0.06809159 0.01017385-0.12600936 0.0510687-0.16344645 0.10891997a0.2306071 0.2306071 0 0 0-0.02726324 0.19403448c0.04428614 0.13279194 0.18386063 0.2077326 0.31665253 0.17368678l2.04959719-0.50736225 1.74650976 0.93625957-1.54223494 0.8273396-2.03257428-0.50722927c-0.1361832-0.03065452-0.2723664 0.04421963-0.31658606 0.17355379-0.02048068 0.06476682-0.01024033 0.13285843 0.02041417 0.1907097 0.03404581 0.05785126 0.08850578 0.09874612 0.15320613 0.11237774L498.59273655 520.51145052l-2.01887614 1.06566021c-0.10213741 0.04761092-0.15320609 0.15998866-0.1260094 0.26890863 0.03404581 0.10898646 0.13964099 0.18046935 0.25534352 0.17368677l0.12600937-0.0306545 2.01887618-1.07922534-0.41194091 1.42985718a0.2306071 0.2306071 0 0 0 0.02726324 0.19410097c0.03743709 0.05785126 0.09528834 0.09874612 0.16337993 0.10891998 0.1361832 0.03065452 0.2723664-0.04421963 0.31665257-0.17362028l0.55497318-1.88954202 1.54223494-0.82733958v1.65122139l-1.49462402 1.38231276c-0.05445998 0.04082836-0.0851145 0.10552869-0.08511452 0.1735538s0.03065452 0.13285843 0.08511452 0.17368678a0.2677782 0.2677782 0 0 0 0.36432999 0l1.12690274-1.0486373v2.14488554c0.03058803 0.11916032 0.13964099 0.20427482 0.26212607 0.20427481 0.12261808 0 0.23153805-0.0851145 0.26219259-0.20427481v-2.14488554l1.12690275 1.0486373a0.2677782 0.2677782 0 0 0 0.36426347 0c0.05452649-0.04082836 0.0851145-0.10552869 0.0851145-0.1736203s-0.03058803-0.13279194-0.0851145-0.17362028l-1.49455751-1.38231276v-1.65122139l1.54223494 0.82733958 0.55497316 1.88954202c0.04421963 0.13279194 0.18386063 0.2076661 0.31658607 0.17362028 0.06809159-0.01017385 0.12600936-0.0510687 0.16344644-0.10891998 0.03743709-0.05785126 0.04767742-0.12940065 0.02726324-0.19410096l-0.41200739-1.42992369 2.01894265 1.07922534c0.06130904 0.03750359 0.1361832 0.04774391 0.2076661 0.03072101a0.2553435 0.2553435 0 0 0 0.16005517-0.11237775c0.03743709-0.05452649 0.0510687-0.12594288 0.03058802-0.19064318a0.23898558 0.23898558 0 0 0-0.12594288-0.14296577l-2.03935684-1.07590054z m19.49122168 0l1.54230142-0.38128639c0.06809159-0.01024033 0.12594288-0.0510687 0.16337996-0.10898647 0.03750359-0.05785126 0.04767742-0.12933415 0.02726324-0.19403446a0.26558386 0.26558386 0 0 0-0.31665254-0.17362031l-2.0495307 0.52431866-1.54230143-0.82733958 1.74657626-0.93625957 2.04953068 0.50729575h0.06470031c0.12255159 0.00339128 0.23153805-0.0851145 0.25534353-0.20766609a0.23625924 0.23625924 0 0 0-0.1906432-0.26897512l-1.54230144-0.3813529 1.81127657-0.97030536a0.24038197 0.24038197 0 0 0 0.09528835-0.33360894 0.27336384 0.27336384 0 0 0-0.35063186-0.09535485l-1.81127657 0.98393697 0.41200739-1.42992369a0.2306071 0.2306071 0 0 0-0.02726322-0.19403447 0.23765566 0.23765566 0 0 0-0.16344647-0.10898646c-0.1361832-0.03058803-0.2723664 0.04428614-0.31658604 0.17362028l-0.55497316 1.90656492-1.74650977 0.93625956v-1.8758439l1.49455754-1.38231276c0.05452649-0.04082836 0.0851145-0.10552869 0.08511448-0.1736203s-0.03058803-0.13279194-0.08511448-0.17362027a0.26757872 0.26757872 0 0 0-0.3642635 0l-1.12690274 1.0486373v-1.93728593a0.2726989 0.2726989 0 0 0-0.2621926-0.20427482c-0.12255159 0-0.23147154 0.0851145-0.26212606 0.20427482v1.93721944l-1.12690274-1.04863732a0.26757872 0.26757872 0 0 0-0.36433 0c-0.05445998 0.04089486-0.0851145 0.10559518-0.08511451 0.17368678s0.03065452 0.13279194 0.08511451 0.1736203l1.49462401 1.38224627v1.85888748l-1.74650974-0.93625955-0.54134156-1.87584389a0.26558386 0.26558386 0 0 0-0.31665256-0.17368679c-0.06809159 0.01024033-0.12594288 0.0510687-0.16337994 0.10891997a0.2306071 0.2306071 0 0 0-0.02726324 0.19410097l0.41194089 1.42992368-1.81121007-0.98393698a0.27442778 0.27442778 0 0 0-0.35069836 0.09535483 0.24038197 0.24038197 0 0 0 0.09535486 0.33360897l1.81121007 0.97030537-1.55586657 0.36432997c-0.06809159 0.01017385-0.12600936 0.0510687-0.16344643 0.10891997a0.2306071 0.2306071 0 0 0-0.02726324 0.19403448c0.04428614 0.13279194 0.18386063 0.2077326 0.31665255 0.17368678l2.04959718-0.50736225 1.74650975 0.93625957-1.54223494 0.8273396-2.03257427-0.50722927c-0.1361832-0.03065452-0.2723664 0.04421963-0.31658607 0.17355379-0.02048068 0.06476682-0.01024033 0.13285843 0.02041419 0.1907097 0.03404581 0.05785126 0.08850578 0.09874612 0.15320612 0.11237774L518.08395822 520.51145052l-2.01887615 1.06566021c-0.10213741 0.04761092-0.15320609 0.15998866-0.12600937 0.26890863 0.03404581 0.10898646 0.13964099 0.18046935 0.25534351 0.17368677l0.12600937-0.0306545 2.01887615-1.07922534-0.4119409 1.42985718a0.2306071 0.2306071 0 0 0 0.02726325 0.19410097c0.03743709 0.05785126 0.09528834 0.09874612 0.16337995 0.10891998 0.1361832 0.03065452 0.2723664-0.04421963 0.31665256-0.17362028l0.55497317-1.88954202 1.54223493-0.82733958v1.65122139l-1.49462401 1.38231276c-0.05445998 0.04082836-0.0851145 0.10552869-0.08511451 0.1735538s0.03065452 0.13285843 0.08511451 0.17368678a0.2677782 0.2677782 0 0 0 0.36432999 0l1.12690275-1.0486373v2.14488554c0.03058803 0.11916032 0.13964099 0.20427482 0.26212606 0.20427481 0.12261808 0 0.23153805-0.0851145 0.2621926-0.20427481v-2.14488554l1.12690274 1.0486373a0.2677782 0.2677782 0 0 0 0.3642635 0c0.05452649-0.04082836 0.0851145-0.10552869 0.08511448-0.1736203s-0.03058803-0.13279194-0.08511448-0.17362028l-1.49455755-1.38231276v-1.65122139l1.54223495 0.82733958 0.55497316 1.88954202c0.04421963 0.13279194 0.18386063 0.2076661 0.31658607 0.17362028 0.06809159-0.01017385 0.12600936-0.0510687 0.16344645-0.10891998 0.03743709-0.05785126 0.04767742-0.12940065 0.02726323-0.19410096l-0.41200738-1.42992369 2.01894266 1.07922534c0.06130904 0.03750359 0.1361832 0.04774391 0.20766608 0.03072101a0.2553435 0.2553435 0 0 0 0.16005517-0.11237775c0.03743709-0.05452649 0.0510687-0.12594288 0.03058801-0.19064318a0.23898558 0.23898558 0 0 0-0.12594285-0.14296577l-2.03935686-1.07590054z m0 0" fill="#9FDFFF" p-id="4803"></path><path d="M166.54728407 916.26926334l30.02422614-7.42288245c1.3256072-0.1993589 2.45315003-0.99420539 3.18197507-2.12045369 0.72882505-1.1262483 0.92818395-2.51917147 0.53076068-3.77875721a5.17038587 5.17038587 0 0 0-6.16459124-3.38003943l-39.90155315 10.20743428-30.02422614-16.10664518 34.00104772-18.22709887 39.90155314 9.87603247h1.25958574c2.38583404 0.06602145 4.50628773-1.65700898 4.97102695-4.04284302a4.59949449 4.59949449 0 0 0-3.71273575-5.2364073l-30.02422614-7.42288246 35.26063344-18.88990245a4.67975585 4.67975585 0 0 0 1.85636789-6.49599305 5.32184684 5.32184684 0 0 0-6.82739485-1.85636788l-35.26063344 19.1552828 8.01966458-27.83775099a4.48945873 4.48945873 0 0 0-0.53076068-3.77746267 4.62667979 4.62667979 0 0 0-3.18068053-2.12174823c-2.65121438-0.59548759-5.30242877 0.86216249-6.16459125 3.38133397l-10.80292188 37.11700132-34.00234224 18.22709886v-36.52151372l29.09733672-26.90956704c1.06022685-0.7948465 1.65700898-2.05443223 1.657009-3.38003943s-0.59678213-2.58519293-1.657009-3.38003943a5.20922201 5.20922201 0 0 0-7.09277518 0l-21.93854009 20.41486854v-37.71378347a5.30890145 5.30890145 0 0 0-5.10306987-3.97682157c-2.38583404 0-4.50758226 1.65700898-5.1043644 3.97682157v37.71248893l-21.93854009-20.41486855a5.20922201 5.20922201 0 0 0-7.09148065 0c-1.0615214 0.79614103-1.65700898 2.05572679-1.65700899 3.38133398s0.59548759 2.58519293 1.65700899 3.38003943l29.09733673 26.90956704v36.19011193l-34.00234223-18.22709887-10.53754157-36.52151372a5.17038587 5.17038587 0 0 0-6.16459123-3.37874487c-1.3256072 0.19806435-2.45315003 0.99291085-3.18197506 2.12045367a4.48945873 4.48945873 0 0 0-0.5307607 3.77746268l8.02095914 27.83775099-35.26192799-19.15528281a5.34255945 5.34255945 0 0 0-6.8261003 1.85636789 4.67975585 4.67975585 0 0 0 1.85507334 6.49469851l35.26192798 18.88990246-30.29090102 7.0927752c-1.3256072 0.19806435-2.45185549 0.99420539-3.18068053 2.12045368a4.48945873 4.48945873 0 0 0-0.5307607 3.77875721c0.86216249 2.58389842 3.57939831 4.04284302 6.16459126 3.37874488l39.90025861-9.87473793 34.00234224 18.22709887-30.02552067 16.10664517-39.5688568-9.87732701c-2.65121438-0.59548759-5.30242877 0.86216249-6.16459126 3.38133396-0.39742325 1.25958574-0.1993589 2.58519293 0.39742326 3.71144123 0.66280359 1.1262483 1.72303043 1.92238933 2.98261617 2.18776967l30.02552066 7.42288245-39.304771 20.74627035c-1.98841078 0.92818395-2.98261618 3.11465908-2.45185549 5.23640731 0.66280359 2.12045369 2.71723583 3.51208233 4.97102697 3.37874487l2.45185549-0.59548759 39.304771-21.01035614-8.0196646 27.83775098a4.48945873 4.48945873 0 0 0 0.53076068 3.77746268c0.72753051 1.1262483 1.85507333 1.92238933 3.18068055 2.1204537 2.65121438 0.59678213 5.30242877-0.86086795 6.16329672-3.37874489l10.80421641-36.78689407 30.02552067-16.10535063v32.14597435l-29.09733673 26.90956706c-1.0615214 0.7948465-1.65700898 2.05443223-1.65700899 3.38003942s0.59548759 2.58519293 1.65700899 3.38003944a5.21310562 5.21310562 0 0 0 7.09148065 0l21.93854009-20.41486855v41.75792103c0.59678213 2.31981259 2.71853038 3.97682157 5.1043644 3.97682156s4.50628773-1.65700898 5.10306987-3.97682156v-41.75662649l21.93854009 20.41486854a5.21310562 5.21310562 0 0 0 7.09277518 0c1.06022685-0.79614103 1.65700898-2.05572679 1.657009-3.38133397s-0.59678213-2.58519293-1.657009-3.38003942l-29.09733672-26.90956706v-32.14597435l30.02552067 16.10535063 10.80292187 36.78559952c0.86216249 2.58519293 3.57939831 4.04284302 6.16459125 3.38003944 1.3256072-0.19806435 2.45185549-0.99420539 3.18068053-2.1204537 0.73011961-1.1262483 0.92818395-2.51917147 0.5307607-3.77746268l-8.01966459-27.83775098 39.30347646 21.01035614c1.19356429 0.72882505 2.65121438 0.92818395 4.04413757 0.59548759a4.97102697 4.97102697 0 0 0 3.11465907-2.18647511c0.72882505-1.06022685 0.99420539-2.45185549 0.59548758-3.71144124a4.65257055 4.65257055 0 0 0-2.45185545-2.78325729l-39.70089972-20.94562923z m0 0M546.00234224 916.26926334l30.02422613-7.42288245c1.3256072-0.1993589 2.45315003-0.99420539 3.18197508-2.12045369 0.72882505-1.1262483 0.92818395-2.51917147 0.53076069-3.77875721a5.17038587 5.17038587 0 0 0-6.16459125-3.38003943l-39.90155316 10.20743428-30.02422613-16.10664518 34.00104771-18.22709887 39.90155314 9.87603247h1.25958574c2.38583404 0.06602145 4.50628773-1.65700898 4.97102698-4.04284302a4.59949449 4.59949449 0 0 0-3.71273578-5.2364073l-30.02422613-7.42288246 35.26063344-18.88990245a4.67975585 4.67975585 0 0 0 1.85636788-6.49599305 5.32184684 5.32184684 0 0 0-6.82739485-1.85636788l-35.26063343 19.1552828 8.0196646-27.83775099a4.48945873 4.48945873 0 0 0-0.53076069-3.77746267 4.62667979 4.62667979 0 0 0-3.18068054-2.12174823c-2.65121438-0.59548759-5.30242877 0.86216249-6.16459125 3.38133397l-10.80292189 37.11700132-34.00234223 18.22709886v-36.52151372l29.09733673-26.90956704c1.06022685-0.7948465 1.65700898-2.05443223 1.65700899-3.38003943s-0.59678213-2.58519293-1.65700899-3.38003943a5.20922201 5.20922201 0 0 0-7.09277519 0l-21.93854009 20.41486854v-37.71378347a5.30890145 5.30890145 0 0 0-5.10306986-3.97682157c-2.38583404 0-4.50758226 1.65700898-5.10436441 3.97682157v37.71248893l-21.93854009-20.41486855a5.20922201 5.20922201 0 0 0-7.09148064 0c-1.0615214 0.79614103-1.65700898 2.05572679-1.657009 3.38133398s0.59548759 2.58519293 1.657009 3.38003943l29.09733672 26.90956704v36.19011193l-34.00234224-18.22709887-10.53754156-36.52151372a5.17038587 5.17038587 0 0 0-6.16459122-3.37874487c-1.3256072 0.19806435-2.45315003 0.99291085-3.18197507 2.12045367a4.48945873 4.48945873 0 0 0-0.53076069 3.77746268l8.02095912 27.83775099-35.26192798-19.15528281a5.34255945 5.34255945 0 0 0-6.8261003 1.85636789 4.67975585 4.67975585 0 0 0 1.85507335 6.49469851l35.26192797 18.88990246-30.29090102 7.0927752c-1.3256072 0.19806435-2.45185549 0.99420539-3.18068053 2.12045368a4.48945873 4.48945873 0 0 0-0.53076068 3.77875721c0.86216249 2.58389842 3.57939831 4.04284302 6.16459124 3.37874488l39.90025861-9.87473793 34.00234224 18.22709887-30.02552068 16.10664517-39.5688568-9.87732701c-2.65121438-0.59548759-5.30242877 0.86216249-6.16459125 3.38133396-0.39742325 1.25958574-0.1993589 2.58519293 0.39742325 3.71144123 0.66280359 1.1262483 1.72303043 1.92238933 2.98261618 2.18776967l30.02552068 7.42288245-39.30477102 20.74627035c-1.98841078 0.92818395-2.98261618 3.11465908-2.45185547 5.23640731 0.66280359 2.12045369 2.71723583 3.51208233 4.97102695 3.37874487l2.45185548-0.59548759 39.30477101-21.01035614-8.01966459 27.83775098a4.48945873 4.48945873 0 0 0 0.53076068 3.77746268c0.72753051 1.1262483 1.85507333 1.92238933 3.18068055 2.1204537 2.65121438 0.59678213 5.30242877-0.86086795 6.1632967-3.37874489l10.80421642-36.78689407 30.02552067-16.10535063v32.14597435l-29.09733672 26.90956706c-1.0615214 0.7948465-1.65700898 2.05443223-1.657009 3.38003942s0.59548759 2.58519293 1.657009 3.38003944a5.21310562 5.21310562 0 0 0 7.09148064 0l21.93854009-20.41486855v41.75792103c0.59678213 2.31981259 2.71853038 3.97682157 5.10436441 3.97682156s4.50628773-1.65700898 5.10306986-3.97682156v-41.75662649l21.93854009 20.41486854a5.21310562 5.21310562 0 0 0 7.09277519 0c1.06022685-0.79614103 1.65700898-2.05572679 1.65700899-3.38133397s-0.59678213-2.58519293-1.65700899-3.38003942l-29.09733673-26.90956706v-32.14597435l30.02552067 16.10535063 10.80292188 36.78559952c0.86216249 2.58519293 3.57939831 4.04284302 6.16459125 3.38003944 1.3256072-0.19806435 2.45185549-0.99420539 3.18068053-2.1204537 0.73011961-1.1262483 0.92818395-2.51917147 0.5307607-3.77746268l-8.0196646-27.83775098 39.30347646 21.01035614c1.19356429 0.72882505 2.65121438 0.92818395 4.04413756 0.59548759a4.97102697 4.97102697 0 0 0 3.11465908-2.18647511c0.72882505-1.06022685 0.99420539-2.45185549 0.59548764-3.71144124a4.65257055 4.65257055 0 0 0-2.45185552-2.78325729l-39.70089971-20.94562923z m0 0M925.45740042 916.26926334l30.02422613-7.42288245c1.3256072-0.1993589 2.45315003-0.99420539 3.18197507-2.12045369 0.72882505-1.1262483 0.92818395-2.51917147 0.53076069-3.77875721a5.17038587 5.17038587 0 0 0-6.16459125-3.38003943l-39.90155314 10.20743428-30.02422613-16.10664518 34.0010477-18.22709887 39.90155314 9.87603247h1.25958574c2.38583404 0.06602145 4.50628773-1.65700898 4.97102696-4.04284302a4.59949449 4.59949449 0 0 0-3.71273576-5.2364073l-30.02422614-7.42288246 35.26063346-18.88990245a4.67975585 4.67975585 0 0 0 1.85636788-6.49599305 5.32184684 5.32184684 0 0 0-6.82739485-1.85636788l-35.26063344 19.1552828 8.01966459-27.83775099a4.48945873 4.48945873 0 0 0-0.5307607-3.77746267 4.62667979 4.62667979 0 0 0-3.18068053-2.12174823c-2.65121438-0.59548759-5.30242877 0.86216249-6.16459125 3.38133397l-10.80292187 37.11700132-34.00234224 18.22709886v-36.52151372l29.09733673-26.90956704c1.06022685-0.7948465 1.65700898-2.05443223 1.65700898-3.38003943s-0.59678213-2.58519293-1.65700898-3.38003943a5.20922201 5.20922201 0 0 0-7.09277519 0l-21.9385401 20.41486854v-37.71378347a5.30890145 5.30890145 0 0 0-5.10306987-3.97682157c-2.38583404 0-4.50758226 1.65700898-5.1043644 3.97682157v37.71248893l-21.93854009-20.41486855a5.20922201 5.20922201 0 0 0-7.09148065 0c-1.0615214 0.79614103-1.65700898 2.05572679-1.65700899 3.38133398s0.59548759 2.58519293 1.65700899 3.38003943l29.09733674 26.90956704v36.19011193l-34.00234224-18.22709887-10.53754153-36.52151372a5.17038587 5.17038587 0 0 0-6.16459126-3.37874487c-1.3256072 0.19806435-2.45315003 0.99291085-3.18197507 2.12045367a4.48945873 4.48945873 0 0 0-0.5307607 3.77746268l8.02095915 27.83775099-35.261928-19.15528281a5.34255945 5.34255945 0 0 0-6.8261003 1.85636789 4.67975585 4.67975585 0 0 0 1.85507335 6.49469851l35.26192798 18.88990246-30.29090103 7.0927752c-1.3256072 0.19806435-2.45185549 0.99420539-3.18068053 2.12045368a4.48945873 4.48945873 0 0 0-0.53076069 3.77875721c0.86216249 2.58389842 3.57939831 4.04284302 6.16459126 3.37874488l39.9002586-9.87473793 34.00234224 18.22709887-30.02552066 16.10664517-39.56885681-9.87732701c-2.65121438-0.59548759-5.30242877 0.86216249-6.16459126 3.38133396-0.39742325 1.25958574-0.1993589 2.58519293 0.39742326 3.71144123 0.66280359 1.1262483 1.72303043 1.92238933 2.98261617 2.18776967l30.02552067 7.42288245-39.304771 20.74627035c-1.98841078 0.92818395-2.98261618 3.11465908-2.45185548 5.23640731 0.66280359 2.12045369 2.71723583 3.51208233 4.97102695 3.37874487l2.4518555-0.59548759 39.304771-21.01035614-8.0196646 27.83775098a4.48945873 4.48945873 0 0 0 0.5307607 3.77746268c0.72753051 1.1262483 1.85507333 1.92238933 3.18068053 2.1204537 2.65121438 0.59678213 5.30242877-0.86086795 6.16329671-3.37874489l10.80421641-36.78689407 30.02552068-16.10535063v32.14597435l-29.09733674 26.90956706c-1.0615214 0.7948465-1.65700898 2.05443223-1.65700899 3.38003942s0.59548759 2.58519293 1.65700899 3.38003944a5.21310562 5.21310562 0 0 0 7.09148065 0l21.93854009-20.41486855v41.75792103c0.59678213 2.31981259 2.71853038 3.97682157 5.1043644 3.97682156s4.50628773-1.65700898 5.10306987-3.97682156v-41.75662649l21.9385401 20.41486854a5.21310562 5.21310562 0 0 0 7.09277519 0c1.06022685-0.79614103 1.65700898-2.05572679 1.65700898-3.38133397s-0.59678213-2.58519293-1.65700898-3.38003942l-29.09733673-26.90956706v-32.14597435l30.02552067 16.10535063 10.80292187 36.78559952c0.86216249 2.58519293 3.57939831 4.04284302 6.16459125 3.38003944 1.3256072-0.19806435 2.45185549-0.99420539 3.18068054-2.1204537 0.73011961-1.1262483 0.92818395-2.51917147 0.53076069-3.77746268l-8.0196646-27.83775098 39.30347647 21.01035614c1.19356429 0.72882505 2.65121438 0.92818395 4.04413756 0.59548759a4.97102697 4.97102697 0 0 0 3.11465907-2.18647511c0.72882505-1.06022685 0.99420539-2.45185549 0.59548759-3.71144124a4.65257055 4.65257055 0 0 0-2.45185546-2.78325729l-39.70089971-20.94562923z m0 0" fill="#78CCFF" p-id="4804"></path></svg>