<?xml version="1.0" standalone="no"?><!DOCTYPE svg PUBLIC "-//W3C//DTD SVG 1.1//EN" "http://www.w3.org/Graphics/SVG/1.1/DTD/svg11.dtd"><svg t="1729043575590" class="icon" viewBox="0 0 1024 1024" version="1.1" xmlns="http://www.w3.org/2000/svg" p-id="4581" xmlns:xlink="http://www.w3.org/1999/xlink" width="200" height="200"><path d="M402.432 307.968m-286.5152 0a286.5152 286.5152 0 1 0 573.0304 0 286.5152 286.5152 0 1 0-573.0304 0Z" fill="#9FDFFF" p-id="4582"></path><path d="M731.648 498.5856m-253.0816 0a253.0816 253.0816 0 1 0 506.1632 0 253.0816 253.0816 0 1 0-506.1632 0Z" fill="#78CCFF" p-id="4583"></path><path d="M268.4416 522.4448m-229.2224 0a229.2224 229.2224 0 1 0 458.4448 0 229.2224 229.2224 0 1 0-458.4448 0Z" fill="#78CCFF" p-id="4584"></path><path d="M690.44878472 743.18067455l-381.6703125 0 0-188.87343746L690.44878472 554.30723708zM728.45972223 465.16504961c0-31.1765625 22.4859375-56.4046875 50.203125-56.40468751s50.20312498 25.27031252 50.20312499 56.40468751c0 31.1765625-50.203125 92.89687502-50.20312499 92.89687497s-50.203125-61.7203125-50.203125-92.89687497z" fill="#78CCFF" p-id="4585"></path><path d="M487.59466668 923.85279999c0 37.8368-27.2896 68.4544-60.928 68.4544s-60.928-30.6688-60.928-68.4544c0-37.8368 60.928-112.7424 60.928-112.7424s60.928 74.9056 60.928 112.7424zM840.51626668 923.85279999c0 37.8368-27.2896 68.4544-60.928 68.4544s-60.928-30.6688-60.928-68.4544c0-37.8368 60.928-112.7424 60.928-112.7424s60.928 74.9056 60.928 112.7424z" fill="#78CCFF" p-id="4586"></path><path d="M311.10826668 633.15626668c0 37.8368-27.2896 68.4544-60.928 68.4544s-60.928-30.6688-60.928-68.4544 60.928-112.7424 60.928-112.7424 60.928 74.9568 60.928 112.7424zM664.02986668 633.15626668c0 37.8368-27.2896 68.4544-60.928 68.4544s-60.928-30.6688-60.928-68.4544 60.928-112.7424 60.928-112.7424 60.928 74.9568 60.928 112.7424zM311.10826668 865.09226668c0 37.8368-27.2896 68.4544-60.928 68.4544s-60.928-30.6688-60.928-68.4544 60.928-112.7424 60.928-112.7424 60.928 74.9568 60.928 112.7424zM664.02986668 865.09226668c0 37.8368-27.2896 68.4544-60.928 68.4544s-60.928-30.6688-60.928-68.4544 60.928-112.7424 60.928-112.7424 60.928 74.9568 60.928 112.7424z" fill="#78CCFF" p-id="4587"></path></svg>