<?xml version="1.0" standalone="no"?><!DOCTYPE svg PUBLIC "-//W3C//DTD SVG 1.1//EN" "http://www.w3.org/Graphics/SVG/1.1/DTD/svg11.dtd"><svg t="1729044259613" class="icon" viewBox="0 0 1024 1024" version="1.1" xmlns="http://www.w3.org/2000/svg" p-id="4646" xmlns:xlink="http://www.w3.org/1999/xlink" width="200" height="200"><path d="M232.43607164 639.68437179a16.57008987 16.57008987 0 0 1 6.79373685 21.574257l-0.53024288 1.00746146-19.75154712 34.91649341L260.13463387 697.18921168a16.57008987 16.57008987 0 0 1 1.08699791 33.10703957L260.13463387 730.32939143l-40.60334823-0.00662804 20.08294893 34.09461694a16.57008987 16.57008987 0 0 1-27.94379956 17.77639243l-0.60977932-0.95443719L190.82526194 746.8994813l-19.5991023 34.66462802a16.57008987 16.57008987 0 0 1-29.37545533-15.30413498l0.53024286-1.0074615 19.75154714-34.92974945L120.94587891 730.32939143a16.57008987 16.57008987 0 0 1-1.08699789-33.10703957L120.94587891 697.18921168l40.59009217-0.00662803-20.06969286-34.08136087a16.57008987 16.57008987 0 0 1 27.94379957-17.77639241l0.6097793 0.95443717 20.22876573 34.33322621 19.60573034-34.664628a16.57008987 16.57008987 0 0 1 22.58171848-6.26349396zM232.43607164 831.89741435a16.57008987 16.57008987 0 0 1 6.79373685 21.574257l-0.53024288 1.00746147-19.75154712 34.91649339L260.13463387 889.40225423a16.57008987 16.57008987 0 0 1 1.08699791 33.10703957L260.13463387 922.54243399l-40.60334823-0.00662803 20.08294893 34.09461693a16.57008987 16.57008987 0 0 1-27.94379956 17.77639242l-0.60977932-0.95443718L190.82526194 939.11252387l-19.5991023 34.66462801a16.57008987 16.57008987 0 0 1-29.37545533-15.30413501l0.53024286-1.00746145 19.75154714-34.92974946L120.94587891 922.54243399a16.57008987 16.57008987 0 0 1-1.08699789-33.10703957L120.94587891 889.40225423l40.59009217-0.00662802-20.06969286-34.08136088a16.57008987 16.57008987 0 0 1 27.94379957-17.7763924l0.6097793 0.95443716 20.22876573 34.33322624 19.60573034-34.66462802a16.57008987 16.57008987 0 0 1 22.58171848-6.26349396zM553.89581524 639.68437179a16.57008987 16.57008987 0 0 1 6.79373686 21.574257l-0.53024288 1.00746146-19.75154713 34.91649341 41.18661539 0.00662802a16.57008987 16.57008987 0 0 1 1.0869979 33.10703957l-1.0869979 0.03314018-40.60334823-0.00662804 20.08294893 34.09461694a16.57008987 16.57008987 0 0 1-27.94379957 17.77639243l-0.6097793-0.95443719-20.23539377-34.33985427-19.5991023 34.66462802a16.57008987 16.57008987 0 0 1-29.37545534-15.30413498l0.53024288-1.0074615 19.75154713-34.92974945-41.18661539 0.00662804a16.57008987 16.57008987 0 0 1-1.0869979-33.10703957l1.0869979-0.03314018 40.59009216-0.00662802-20.06969286-34.08136088a16.57008987 16.57008987 0 0 1 27.94379957-17.7763924l0.6097793 0.95443716 20.22876572 34.33322621 19.60573035-34.664628a16.57008987 16.57008987 0 0 1 22.58171848-6.26349396zM553.89581524 831.89741435a16.57008987 16.57008987 0 0 1 6.79373686 21.574257l-0.53024288 1.00746147-19.75154713 34.91649339 41.18661539 0.00662802a16.57008987 16.57008987 0 0 1 1.0869979 33.10703957l-1.0869979 0.03314019-40.60334823-0.00662803 20.08294893 34.09461693a16.57008987 16.57008987 0 0 1-27.94379957 17.77639242l-0.6097793-0.95443718-20.23539377-34.33985426-19.5991023 34.66462801a16.57008987 16.57008987 0 0 1-29.37545534-15.30413501l0.53024288-1.00746145 19.75154713-34.92974946-41.18661539 0.00662803a16.57008987 16.57008987 0 0 1-1.0869979-33.10703957l1.0869979-0.03314019 40.59009216-0.00662802-20.06969286-34.08136088a16.57008987 16.57008987 0 0 1 27.94379957-17.7763924l0.6097793 0.95443716 20.22876572 34.33322624 19.60573035-34.66462802a16.57008987 16.57008987 0 0 1 22.58171848-6.26349396zM865.41350492 636.37035379a16.57008987 16.57008987 0 0 1 6.79373685 21.57425703l-0.53024288 1.00746147-19.75154712 34.91649337 41.1866154 0.00662805a16.57008987 16.57008987 0 0 1 1.08699789 33.10703956l-1.08699789 0.03314019h-40.60334824l20.08294893 34.0879889a16.57008987 16.57008987 0 0 1-27.94379957 17.78302045l-0.6097793-0.96106522-20.23539377-34.33322623-19.5991023 34.66462803a16.57008987 16.57008987 0 0 1-29.37545533-15.31076305l0.53024288-1.00083343 19.75154712-34.92974945H753.92331219a16.57008987 16.57008987 0 0 1-1.08699789-33.10041155l1.08699789-0.0397682h40.59009217l-20.06969286-34.08136088a16.57008987 16.57008987 0 0 1 27.94379957-17.78302044l0.60977931 0.9610652 20.22876572 34.33322624 19.60573034-34.66462801a16.57008987 16.57008987 0 0 1 22.58171848-6.27012203zM865.41350492 828.58339636a16.57008987 16.57008987 0 0 1 6.79373685 21.57425702l-0.53024288 1.00746147-19.75154712 34.91649338 41.1866154 0.00662804a16.57008987 16.57008987 0 0 1 1.08699789 33.10703956l-1.08699789 0.03314019h-40.60334824l20.08294893 34.08798891a16.57008987 16.57008987 0 0 1-27.94379957 17.78302045l-0.6097793-0.96106522-20.23539377-34.33322624-19.5991023 34.66462802a16.57008987 16.57008987 0 0 1-29.37545533-15.31076303l0.53024288-1.00083343 19.75154712-34.92974946H753.92331219a16.57008987 16.57008987 0 0 1-1.08699789-33.10041154l1.08699789-0.03976821h40.59009217l-20.06969286-34.08136087a16.57008987 16.57008987 0 0 1 27.94379957-17.78302045l0.60977931 0.96106521 20.22876572 34.33322624 19.60573034-34.66462803a16.57008987 16.57008987 0 0 1 22.58171848-6.27012201z" fill="#6ECBEB" p-id="4647"></path><path d="M514.8224 68.26666667c88.1184 0 163.6656 53.8464 195.5616 130.4496a211.3104 211.3104 0 0 1 69.8496-11.7984c116.9568 0 211.7664 94.8576 211.7664 211.872C992 515.80906667 897.1904 610.66666667 780.2336 610.66666667a210.696 210.696 0 0 1-114.72-33.7584C621.872 598.20106667 568.9808 610.66666667 512 610.66666667c-56.9904 0-109.872-12.4656-153.5136-33.7536a210.672 210.672 0 0 1-114.72 33.7536C126.8096 610.66666667 32 515.80906667 32 398.79466667 32 281.77066667 126.8096 186.91306667 243.7664 186.91306667a211.2 211.2 0 0 1 74.7648 13.584C349.9904 122.95306667 426.0224 68.26666667 514.8224 68.26666667z" fill="#6ECBEB" p-id="4648"></path><path d="M514.8224 89.6c88.1184 0 163.6656 53.8464 195.5616 130.4496a211.3104 211.3104 0 0 1 69.8496-11.7984c116.9568 0 211.7664 94.8576 211.7664 211.872 0 81.5664-46.0656 152.3664-113.5872 187.776-171.4752-3.9984-163.9104-141.1632-169.0368-139.3728-163.488 207.1008-344.9664 50.592-338.1456 47.3424-217.3536 57.1152-283.0464-41.52-197.088-295.8912a211.128 211.128 0 0 1 69.624-11.7264 211.2 211.2 0 0 1 74.7648 13.584C349.9904 144.2864 426.0224 89.6 514.8224 89.6z" fill="#FFFFFF" fill-opacity=".2" p-id="4649"></path></svg>