<?xml version="1.0" standalone="no"?><!DOCTYPE svg PUBLIC "-//W3C//DTD SVG 1.1//EN" "http://www.w3.org/Graphics/SVG/1.1/DTD/svg11.dtd"><svg t="1728219214638" class="icon" viewBox="0 0 1024 1024" version="1.1" xmlns="http://www.w3.org/2000/svg" p-id="4471" xmlns:xlink="http://www.w3.org/1999/xlink" width="200" height="200"><path d="M513.664283 758.498467a26.385246 26.385246 0 0 1-26.385246-24.736168v-159.960551a26.385246 26.385246 0 1 1 51.121413 0v158.311473a26.385246 26.385246 0 0 1-24.736167 26.385246" fill="#C3EFFF" p-id="4472"></path><path d="M406.474223 971.229509a26.385246 26.385246 0 0 1-26.385246-26.385246v-158.311473a26.385246 26.385246 0 1 1 51.121413 0v158.311473a26.385246 26.385246 0 0 1-24.736167 26.385246" fill="#C4E9F6" p-id="4473"></path><path d="M619.205265 1024a26.385246 26.385246 0 0 1-24.736168-26.385246v-158.311473a26.385246 26.385246 0 0 1 24.736168-26.385245 26.385246 26.385246 0 0 1 26.385245 26.385245v158.311473A26.385246 26.385246 0 0 1 619.205265 1024" fill="#AAE9FF" p-id="4474"></path><path d="M782.463971 484.751545m-232.519976 0a232.519976 232.519976 0 1 0 465.039952 0 232.519976 232.519976 0 1 0-465.039952 0Z" fill="#91E0FC" p-id="4475"></path><path d="M261.355372 253.880646v-9.894467a242.414443 242.414443 0 1 1 446.900096 128.628072 222.625509 222.625509 0 0 1-324.868335 296.834012 232.519976 232.519976 0 1 1-141.820695-415.567617z" fill="#AAE9FF" p-id="4476"></path></svg>