<?xml version="1.0" standalone="no"?><!DOCTYPE svg PUBLIC "-//W3C//DTD SVG 1.1//EN" "http://www.w3.org/Graphics/SVG/1.1/DTD/svg11.dtd"><svg t="1728217848794" class="icon" viewBox="0 0 1024 1024" version="1.1" xmlns="http://www.w3.org/2000/svg" p-id="5849" xmlns:xlink="http://www.w3.org/1999/xlink" width="200" height="200"><path d="M277.218459 554.436917a277.217459 277.217459 0 1 0 554.433917 0 277.217459 277.217459 0 1 0-554.433917 0z" fill="#FFE97C" p-id="5850"></path><path d="M353.30331 332.62035c25.930949-28.446944 108.114789-79.241845 115.834774-42.009918 6.695987 32.199937-71.351861 89.519825-106.621792 103.125799-42.989916 16.632968-51.1359-15.054971-9.212982-61.115881z" fill="#FFB28E" p-id="5851"></path><path d="M516.179992 170.639667l4.391991 0.086 4.392992 0.126999 4.349991 0.171 4.349992 0.255999 4.349991 0.299 4.307992 0.382999 4.307991 0.383999 4.306992 0.469999 4.264992 0.510999 4.264991 0.596999 4.264992 0.596999 4.221992 0.682999 4.179992 0.724998 4.221991 0.766999 4.136992 0.852998 4.179992 0.852999 4.136992 0.938998 4.093992 0.979998 4.093992 1.023998 4.094992 1.065998 4.050992 1.151997 4.051992 1.150998 4.008992 1.236998 4.008993 1.279997 3.965992 1.321998 3.923992 1.364997 3.923992 1.406997 3.922993 1.449997 3.880992 1.492998 3.880993 1.577996 3.838992 1.577997 3.795993 1.662997 3.794992 1.662997 3.752993 1.748996 3.752993 1.748997 3.709992 1.832996 3.710993 1.876997 3.667993 1.876996 3.624993 1.960996 3.625993 2.004996 3.581993 2.046996 3.539993 2.046996 3.539993 2.132996 3.496993 2.131996 3.496993 2.217996 3.411994 2.259995 3.454993 2.259996 3.368993 2.303995 3.369994 2.387996 3.325993 2.387995 3.283994 2.430995 3.283993 2.473996 3.240994 2.515995 3.198994 2.559995 3.197994 2.599995 3.113994 2.601994 3.112993 2.686995 3.069994 2.686995 3.071994 2.729995 3.027995 2.771994 2.941994 2.814995 2.942994 2.856994 2.942994 2.857995 2.856995 2.941994 2.857994 2.942994 2.814995 2.942994 2.771994 3.027994 2.729995 3.069994 2.685995 3.070994 2.686994 3.113994 2.601995 3.112994 2.600995 3.198994 2.559995 3.198994 2.515995 3.239993 2.472995 3.284994 2.430996 3.283994 2.388995 3.325993 2.387995 3.369994 2.302996 3.368993 2.259995 3.453993 2.259996 3.411994 2.217996 3.497993 2.132996 3.496993 2.131995 3.539993 2.046996 3.539993 2.047996 3.581993 2.003996 3.624993 1.961997 3.624993 1.875996 3.667993 1.876996 3.709992 1.833997 3.710993 1.748996 3.752993 1.747997 3.752993 1.662997 3.795992 1.663996 3.795993 1.577997 3.837992 1.577997 3.880993 1.491997 3.880992 1.449998 3.923992 1.407997 3.923993 1.364997 3.922992 1.321998 3.966992 1.279997 4.008992 1.235998 4.008993 1.151997 4.050992 1.150998 4.051992 1.065998 4.093992 1.023998 4.094992 0.979998 4.093992 0.939998 4.136992 0.851999 4.179992 0.852998 4.135992 0.767998 4.222991 0.724999 4.179992 0.681999 4.220992 0.596999 4.264992 0.596998 4.264991 0.511999 4.264992 0.469999 4.307991 0.383 4.306992 0.383999 4.307992 0.298999 4.349991 0.255 4.349992 0.171 4.349991 0.127999 4.392992 0.085 4.392991 0.043 4.392991-0.043 4.392992-0.085 4.391991-0.127999 4.392992-0.17 4.349991-0.256 4.349992-0.298999 4.349991-0.383999 4.307992-0.384 4.307991-0.468999 4.306992-0.511999 4.264992-0.596998 4.264991-0.596999 4.264992-0.681999 4.221992-0.724999 4.179992-0.767998 4.221991-0.852998 4.136992-0.852999 4.179992-0.937998 4.136992-0.980998 4.093992-1.023998 4.093992-1.065998 4.094992-1.150998 4.050992-1.151997 4.051992-1.236998 4.008992-1.279997 4.008993-1.320998 3.965992-1.364997 3.923992-1.406997 3.923992-1.449998 3.922993-1.492997 3.880992-1.577997 3.880993-1.577997 3.838992-1.663996 3.795993-1.662997 3.794992-1.747997 3.752993-1.749996 3.752993-1.832997 3.709992-1.876996 3.710993-1.875996 3.667993-1.961997 3.624993-2.003996 3.625993-2.047996 3.581993-2.046996 3.539993-2.131995 3.539993-2.132996 3.496993-2.216996 3.496993-2.259996 3.411994-2.260995 3.454993-2.302996 3.368993-2.387995 3.369994-2.388995 3.325993-2.429996 3.283994-2.473995 3.283993-2.516995 3.240994-2.558995 3.198994-2.600995 3.197994-2.601995 3.113994-2.686994 3.112993-2.686995 3.069994-2.729995 3.071994-2.770994 3.027995-2.814995 2.941994-2.857994 2.942994-2.856995 2.942994-2.942994 2.856995-2.942994 2.857994-2.941994 2.814995-3.027995 2.771994-3.070994 2.729995-3.069994 2.685995-3.113993 2.686994-3.113994 2.601995-3.197994 2.600995-3.198994 2.559995-3.240994 2.515995-3.283993 2.472995-3.283994 2.430996-3.326993 2.388995-3.369994 2.387995-3.367993 2.302996-3.454993 2.259995-3.411994 2.259996-3.496993 2.217996-3.496993 2.132996-3.539993 2.131995-3.539993 2.046996-3.581993 2.047996-3.625993 2.003996-3.624993 1.961997-3.667993 1.875996-3.709993 1.876996-3.709992 1.833997-3.753993 1.748996-3.752993 1.747997-3.794992 1.662997-3.795993 1.663996-3.838992 1.577997-3.879993 1.577997-3.881992 1.492997-3.922993 1.449998-3.923992 1.406997-3.923992 1.364997-3.965992 1.321998-4.009993 1.279997-4.007992 1.235998-4.051992 1.151997-4.050992 1.150998-4.094992 1.065998-4.093992 1.023998-4.093992 0.979998-4.136992 0.939998-4.179992 0.851999-4.136992 0.852998-4.221991 0.767998-4.179992 0.724999-4.221992 0.681999-4.264992 0.596999-4.264991 0.596998-4.264992 0.511999-4.306992 0.469999-4.307991 0.383-4.306992 0.383999-4.349991 0.298999-4.349992 0.255-4.349991 0.171-4.393992 0.127999-4.391991 0.085-4.392992 0.043-4.392991-0.043-4.392991-0.085-4.392992-0.127999-4.349991-0.17-4.349992-0.256-4.349991-0.298999-4.307992-0.383999-4.306992-0.384-4.307991-0.468999-4.264992-0.511999-4.264991-0.596998-4.264992-0.596999-4.221992-0.681999-4.179992-0.724999-4.221991-0.767998-4.136992-0.852998-4.179992-0.852999-4.135992-0.937998-4.093992-0.980998-4.094992-1.023998-4.093992-1.065998-4.051992-1.150998-4.050992-1.151997-4.009992-1.236998-4.007993-1.279997-3.966992-1.320998-3.922992-1.364997-3.923993-1.406997-3.923992-1.449998-3.879992-1.492997-3.881993-1.577997-3.837992-1.577997-3.795993-1.663996-3.795992-1.662997-3.752993-1.747997-3.752993-1.749996-3.709993-1.832997-3.709992-1.876996-3.668993-1.875996-3.624993-1.961997-3.624993-2.003996-3.582993-2.047996-3.539993-2.046996-3.539993-2.131995-3.495993-2.132996-3.497993-2.216996-3.411994-2.259996-3.453993-2.260995-3.369993-2.302996-3.368994-2.387995-3.325993-2.388995-3.283994-2.429996-3.283994-2.473995-3.240993-2.516995-3.199994-2.558995-3.197994-2.600995-3.112994-2.601995-3.113994-2.686994-3.069994-2.686995-3.070994-2.729995-3.027994-2.770994-2.942994-2.814995-2.942994-2.857994-2.941994-2.856995-2.857995-2.942994-2.856994-2.942994-2.814995-2.941994-2.771994-3.027995-2.729995-3.070994-2.686995-3.069994-2.686995-3.113993-2.600994-3.113994-2.601995-3.197994-2.558995-3.198994-2.515995-3.240994-2.473996-3.283993-2.429995-3.283994-2.388995-3.326993-2.387996-3.369994-2.302995-3.367993-2.259996-3.454993-2.260995-3.411994-2.217996-3.496993-2.131996-3.496993-2.132996-3.539993-2.046996-3.539993-2.046996-3.581993-2.004996-3.625993-1.960996-3.624993-1.876996-3.667993-1.876996-3.709993-1.832997-3.709992-1.748997-3.753993-1.748996-3.752993-1.662997-3.794992-1.662997-3.795993-1.577997-3.838992-1.577996-3.879993-1.492998-3.881992-1.449997-3.922993-1.406997-3.923992-1.364997-3.923992-1.321998-3.965992-1.279997-4.009993-1.236998-4.007992-1.150998-4.051992-1.151997-4.050992-1.065998-4.094992-1.022998-4.093992-0.980998-4.093992-0.938998-4.136992-0.852999-4.179992-0.852998-4.136992-0.766999-4.221991-0.724998-4.179992-0.682999-4.221992-0.596999-4.264992-0.596999-4.264991-0.511999-4.264992-0.468999-4.306992-0.383999-4.307991-0.382999-4.306992-0.299-4.349991-0.255999-4.349992-0.17-4.349991-0.127999-4.393992-0.086-4.391991-0.042-4.392992 0.042-4.392991 0.086-4.392991 0.126999-4.392992 0.171-4.349991 0.255999-4.349992 0.299-4.349991 0.382999-4.307992 0.383999-4.306992 0.469999-4.307991 0.510999-4.264992 0.596999-4.264991 0.596999-4.264992 0.682999-4.221992 0.724998-4.179992 0.766999-4.221991 0.852998-4.136992 0.852999-4.179992 0.938998-4.135992 0.979998-4.093992 1.023998-4.094992 1.065998-4.093992 1.151997-4.051992 1.150998-4.050992 1.236998-4.009993 1.279997-4.007992 1.321998-3.966992 1.364997-3.922992 1.406997-3.923993 1.449997-3.923992 1.492998-3.879992 1.577996-3.881993 1.577997-3.837992 1.662997-3.795993 1.662997-3.795992 1.748996-3.752993 1.748997-3.752993 1.832997-3.709993 1.876996-3.709992 1.876996-3.668993 1.960996-3.624993 2.004996-3.624993 2.046996-3.582993 2.046996-3.539993 2.132996-3.539993 2.131996-3.495993 2.217996-3.497993 2.259995-3.411994 2.259996-3.453993 2.303995-3.369993 2.387996-3.368994 2.387995-3.325993 2.430995-3.283994 2.473996-3.283994 2.515995-3.240993 2.559995-3.199994 2.599995-3.197994 2.601994-3.112994 2.686995-3.113994 2.686995-3.069994 2.729995-3.070994 2.771994-3.027994 2.814995-2.942994 2.856994-2.942994 2.857995-2.941994 2.941994-2.857995 2.942994-2.856994 2.942994-2.814995 3.027994-2.771994 3.069994-2.729995 3.070994-2.686995 3.113994-2.686995 3.112994-2.600994 3.198994-2.601995 3.198994-2.558995 3.239993-2.515995 3.284994-2.473996 3.283994-2.429995 3.325993-2.388995 3.369994-2.387996 3.368993-2.302995 3.453993-2.259996 3.411994-2.260995 3.497993-2.217996 3.496993-2.131996 3.539993-2.132996 3.539993-2.046996 3.581993-2.046996 3.624993-2.004996 3.624993-1.960996 3.667993-1.876996 3.709992-1.876997 3.710993-1.832996 3.752993-1.748997 3.752993-1.748996 3.795992-1.662997 3.795993-1.662997 3.837992-1.577997 3.880993-1.577996 3.880992-1.492998 3.923992-1.449997 3.923993-1.406997 3.922992-1.364997 3.966992-1.321998 4.008992-1.279997 4.008993-1.236998 4.050992-1.150998 4.051992-1.151997 4.093992-1.065998 4.094992-1.022998 4.093992-0.980998 4.136992-0.938998 4.179992-0.852999 4.135992-0.852998 4.222991-0.766999 4.179992-0.724998 4.220992-0.682999 4.264992-0.596999 4.264991-0.596999 4.264992-0.511999 4.307991-0.468999 4.306992-0.383999 4.307992-0.382999 4.349991-0.299 4.349992-0.255999 4.349991-0.17 4.392992-0.127999 4.392991-0.086 4.392991-0.042 4.392992 0.042z m-8.273984 42.649916l-3.838993 0.042-3.837992 0.128-3.837993 0.17-3.795992 0.213999-3.795993 0.255-3.795992 0.341999-3.752993 0.34-3.752993 0.426999-3.752992 0.426999-3.709993 0.511999-3.710993 0.553999-3.709993 0.596999-3.667992 0.596998-3.667993 0.682999-3.667993 0.724999-3.624993 0.766998-3.624993 0.809999-3.582993 0.853998-3.581993 0.894998-3.539993 0.980998-3.582993 0.980998-3.496993 1.023998-3.539993 1.065998-3.453993 1.108998-3.496994 1.150998-3.454993 1.193998-3.411993 1.236997-3.411994 1.279998-3.411993 1.279997-3.368993 1.363997-3.369994 1.406998-3.325993 1.449997-3.325994 1.449997-3.283993 1.535997-3.283994 1.534997-3.241994 1.577997-3.240993 1.663997-3.198994 1.662996-3.155994 1.705997-3.197994 1.747997-3.113994 1.748996-3.112993 1.833997-3.112994 1.833996-3.028994 1.918996-3.069994 1.919997-2.985995 1.960996-3.027994 2.004996-2.942994 2.003996-2.941994 2.089996-2.942994 2.089996-2.857995 2.131996-2.856994 2.174995-2.856995 2.174996-2.814994 2.259996-2.771995 2.260995-2.729994 2.302996-2.729995 2.345995-2.729995 2.344996-2.642995 2.388995-2.644994 2.429995-2.600995 2.473995-2.601995 2.473996-2.558995 2.515995-2.515995 2.559995-2.473996 2.599995-2.472995 2.601994-2.430995 2.644995-2.388995 2.643995-2.344996 2.729995-2.345995 2.728995-2.302996 2.729994-2.259995 2.771995-2.259996 2.814994-2.175996 2.856995-2.174995 2.856994-2.131996 2.857995-2.089996 2.942994-2.089996 2.941994-2.003996 2.942994-2.004996 3.027994-1.961996 2.985995-1.918997 3.069994-1.919996 3.028994-1.832996 3.112994-1.833997 3.112993-1.748996 3.113994-1.747997 3.197994-1.705997 3.155994-1.662996 3.198994-1.663997 3.240993-1.577997 3.241994-1.534997 3.283994L239.600532 389.00124l-1.449997 3.325994-1.449997 3.326993-1.406998 3.369994-1.364997 3.367993-1.279997 3.411993-1.278998 3.411994-1.236997 3.411993-1.193998 3.454993-1.150998 3.496994-1.109998 3.453993-1.064998 3.539993-1.023998 3.496993-0.979998 3.582993-0.981998 3.539993-0.894998 3.581993-0.852998 3.582993-0.809999 3.624993-0.767998 3.624993-0.724999 3.667993-0.682999 3.667993-0.596998 3.667992-0.596999 3.709993-0.553999 3.709993-0.511999 3.709993-0.426999 3.753992-0.425999 3.752993-0.341 3.752993-0.341999 3.795992-0.255 3.795993-0.213999 3.795992-0.17 3.837993-0.128 3.837992-0.043 3.838993-0.042999 3.879992 0.042999 3.881993 0.043 3.837992 0.128 3.838993 0.17 3.837992 0.213999 3.795993 0.255 3.795993 0.341999 3.794992 0.34 3.752993 0.426999 3.752992 0.426999 3.753993 0.511999 3.709993 0.553999 3.709993 0.596999 3.709992 0.596998 3.668993 0.682999 3.667993 0.724999 3.666993 0.766998 3.625993 0.809999 3.624993 0.853998 3.581993 0.894998 3.582993 0.980998 3.539993 0.980998 3.581993 1.023998 3.496993 1.065998 3.539993 1.108998 3.454993 1.150998 3.496993 1.193998 3.453994 1.236997 3.411993 1.279998 3.411993 1.279997 3.411994 1.363997 3.369993 1.406998 3.368994 1.449997 3.325993 1.449997 3.326994 1.535997 3.283993 1.534997 3.283994 1.577997 3.240993 1.663997 3.240994 1.662996 3.199994 1.705997 3.154994 1.747997 3.198993 1.748996 3.112994 1.833997 3.113994 1.833996 3.112994 1.918996 3.027994 1.919997 3.069994 1.960996 2.985994 2.004996 3.027995 2.003996 2.942994 2.089996 2.942994 2.089996 2.942994 2.131996 2.856995 2.174995 2.857994 2.174996 2.856995 2.259996 2.814994 2.260995 2.771995 2.302996 2.729994 2.345995 2.729995 2.344996 2.728995 2.388995 2.643994 2.429995 2.643995 2.473995 2.601995 2.473996 2.600995 2.515995 2.559995 2.559995 2.514995 2.599995 2.473995 2.601995 2.473996 2.644994 2.429995 2.643995 2.388995 2.729995 2.345996 2.728995 2.344995 2.729994 2.302996 2.771995 2.259995 2.814994 2.260996 2.856995 2.174995 2.856994 2.174996 2.857995 2.132996 2.942994 2.089996 2.941994 2.089996 2.942994 2.003996 3.027994 2.003996 2.985995 1.961996 3.069994 1.919996 3.028994 1.918997 3.112994 1.833996 3.112993 1.833997 3.113994 1.747996 3.197994 1.748997 3.155994 1.705996 3.198994 1.662997 3.240993 1.662997 3.241994 1.577997 3.283994 1.535997 3.283993 1.534997 3.325994 1.449997 3.326993 1.449997 3.369994 1.407997 3.367993 1.363998 3.411993 1.279997 3.411994 1.279998 3.411993 1.235997 3.454993 1.193998 3.496994 1.151998 3.453993 1.108998 3.539993 1.065997 3.496993 1.022998 3.582993 0.980999 3.539993 0.980998 3.581993 0.895998 3.582993 0.852998 3.624993 0.809999 3.624993 0.767998 3.667993 0.724999 3.667993 0.681998 3.667992 0.596999 3.709993 0.596999 3.709993 0.554999 3.709993 0.511999 3.753992 0.425999 3.752993 0.426999 3.752993 0.34 3.795992 0.341999 3.795993 0.255999 3.795992 0.213 3.837993 0.17 3.837992 0.128999 3.838993 0.042 3.879992 0.043 3.881993-0.043 3.837992-0.042 3.838993-0.127999 3.837992-0.17 3.795993-0.214 3.795993-0.255999 3.794992-0.340999 3.752993-0.341 3.752992-0.426999 3.753993-0.425999 3.709993-0.511999 3.709993-0.554999 3.709992-0.596999 3.668993-0.596999 3.667993-0.681998 3.666993-0.724999 3.625993-0.767998 3.624993-0.809999 3.581993-0.852998 3.582993-0.895998 3.539993-0.979998 3.581993-0.981999 3.496993-1.022998 3.539993-1.065997 3.454993-1.109998 3.496993-1.149998 3.453994-1.194998 3.411993-1.236997 3.411993-1.279998 3.411994-1.278997 3.369993-1.363998 3.368994-1.407997 3.325993-1.449997 3.326994-1.449997 3.283993-1.534997 3.283994-1.535997 3.240993-1.577997 3.240994-1.662997 3.199994-1.662997 3.154994-1.705996 3.198993-1.748997 3.112994-1.747996 3.113994-1.833997 3.112994-1.833996 3.027994-1.919997 3.069994-1.918996 2.985994-1.961996 3.027995-2.003996 2.942994-2.004996 2.942994-2.089996 2.942994-2.089996 2.856995-2.131996 2.857994-2.174996 2.856995-2.174995 2.814994-2.259996 2.771995-2.259995 2.729994-2.303996 2.729995-2.344995 2.728995-2.345996 2.643994-2.387995 2.643995-2.430995 2.601995-2.473996 2.600995-2.473995 2.559995-2.515995 2.514995-2.558995 2.473995-2.600995 2.473996-2.601995 2.429995-2.643995 2.388995-2.643994 2.345996-2.729995 2.344995-2.729995 2.302996-2.728994 2.259995-2.771995 2.260996-2.814994 2.174995-2.856995 2.174996-2.857994 2.132996-2.856995 2.089996-2.942994 2.089996-2.942994 2.003996-2.942994 2.003996-3.027995 1.961996-2.984994 1.919996-3.070994 1.918997-3.027994 1.833996-3.112994 1.833997-3.113994 1.747996-3.112994 1.748997-3.198993 1.705996-3.155994 1.662997-3.198994 1.662997-3.239994 1.577997-3.241993 1.535997-3.283994 1.534997-3.283993 1.449997-3.326994 1.449997-3.325993 1.407997-3.369994 1.363998-3.368993 1.279997-3.411994 1.279998-3.411993 1.235997-3.411993 1.193998-3.453994 1.151998-3.496993 1.108998-3.454993 1.065997-3.539993 1.022998-3.496993 0.980999-3.581993 0.980998-3.539993 0.895998-3.582993 0.852998-3.581993 0.809999-3.624993 0.767998-3.625993 0.724999-3.666993 0.681998-3.667993 0.596999-3.667993 0.596999-3.709992 0.554999-3.710993 0.511999-3.709993 0.425999-3.753993 0.426999-3.752992 0.34-3.752993 0.341999-3.794992 0.255999-3.795993 0.213-3.795993 0.17-3.837992 0.128999-3.838993 0.042-3.837992 0.043-3.880993-0.043-3.880992-0.042-3.838993-0.127999-3.837992-0.17-3.837993-0.214-3.795992-0.255999-3.795993-0.340999-3.795992-0.341-3.752993-0.426999-3.752993-0.425999-3.752992-0.511999-3.709993-0.554999-3.710993-0.596999-3.709993-0.596999-3.667992-0.681998-3.667993-0.724999-3.667993-0.767998-3.624993-0.809999-3.624993-0.852998-3.582993-0.895998-3.581993-0.979998-3.539993-0.981999-3.582993-1.022998-3.496993-1.065997-3.539993-1.109998-3.453993-1.149998-3.496994-1.194998-3.454993-1.236997-3.411993-1.279998-3.411994-1.278997-3.411993-1.363998-3.368993-1.407997-3.369994-1.449997-3.325993-1.449997-3.325994-1.534997-3.283993-1.535997-3.283994-1.577997-3.241994-1.662997-3.240993-1.662997-3.198994-1.705996-3.155994-1.748997-3.197994-1.747996-3.113994-1.833997-3.112993-1.833996-3.112994-1.919997-3.028994-1.918996-3.069994-1.961996-2.985995-2.003996-3.027994-2.004996-2.942994-2.089996-2.941994-2.089996-2.942994-2.131996-2.857995-2.174996-2.856994-2.174995-2.856995-2.259996-2.814994-2.259995-2.771995-2.303996-2.729994-2.344995-2.729995-2.345996-2.729995-2.387995-2.642995-2.430995-2.644994-2.473996-2.600995-2.473995-2.601995-2.515995-2.558995-2.558995-2.515995-2.600995-2.473996-2.601995-2.472995-2.643995-2.430995-2.643994-2.388995-2.729995-2.344996-2.729995-2.345995-2.728994-2.302996-2.771995-2.259995-2.814994-2.259996-2.856995-2.175996-2.857994-2.174995-2.856995-2.131996-2.942994-2.089996-2.942994-2.089996-2.942994-2.003996-3.027995-2.004996-2.984994-1.961996-3.070994-1.918997-3.027994-1.919996-3.112994-1.832996-3.113994-1.833997-3.112994-1.748996-3.198993-1.747997-3.155994-1.705997-3.198994-1.662996-3.239994-1.663997-3.241993-1.577997-3.283994-1.534997-3.283993-1.535997-3.326994-1.449997-3.325993-1.449997-3.369994-1.406998-3.368993-1.364997-3.411994-1.279997-3.411993-1.278998-3.411993-1.236997-3.453994-1.193998-3.496993-1.150998-3.454993-1.109998-3.539993-1.064998-3.496993-1.023998-3.581993-0.979998-3.539993-0.981998-3.582993-0.894998-3.581993-0.852998-3.624993-0.809999-3.625993-0.767998-3.666993-0.724999-3.667993-0.682999-3.667993-0.596998-3.709992-0.596999-3.710993-0.553999-3.709993-0.511999-3.753993-0.426999-3.752992-0.425999-3.752993-0.341-3.794992-0.341999-3.795993-0.255-3.795993-0.213999-3.837992-0.17-3.838993-0.128-3.837992-0.043-3.880993-0.042999-3.880992 0.042999z" fill="#FFB28E" p-id="5852"></path><path d="M490.462042 1001.737043c0 12.069976 9.766981 21.836957 21.836957 21.836958h0.042a20.59996 20.59996 0 0 0 14.670972-6.099988 20.59996 20.59996 0 0 0 6.099988-14.669972v-42.691916a21.835957 21.835957 0 0 0-21.836958-21.835958h-0.043a20.59996 20.59996 0 0 0-14.669971 6.098989 20.59996 20.59996 0 0 0-6.099988 14.669971v42.691916zM150.252707 843.170353c-8.529983 8.529983-8.529983 22.347956 0 30.87694h0.042999a20.59996 20.59996 0 0 0 29.384943 0l30.152941-30.151941c8.529983-8.529983 8.529983-22.347956 0-30.87794v-0.043a20.897959 20.897959 0 0 0-29.385942 0l-30.194941 30.195941z m693.256646 30.493941a21.323958 21.323958 0 1 0 30.152941-30.152941l-30.152941-30.152942a21.281958 21.281958 0 0 0-30.152942 30.152942l30.152942 30.152941z m158.739689-340.551335c5.670989 0 11.087978-2.259996 15.096971-6.226988a21.494958 21.494958 0 0 0 0-30.194941 21.494958 21.494958 0 0 0-15.097971-6.226988H959.599126a21.494958 21.494958 0 0 0-15.097971 6.226988 21.494958 21.494958 0 0 0 0 30.194941 21.494958 21.494958 0 0 0 15.097971 6.226988h42.649916zM21.835957 490.463042A21.835957 21.835957 0 0 0 0.001 512.300999v0.042c0 5.501989 2.174996 10.789979 6.098988 14.670972a20.59996 20.59996 0 0 0 14.670971 6.099988h43.202916c5.672989 0 11.089978-2.260996 15.097971-6.227988a21.494958 21.494958 0 0 0 6.226987-15.096971v-0.043a21.239959 21.239959 0 0 0-21.281958-21.281958h-42.179918z m158.568691-340.209335c-8.529983-8.529983-22.347956-8.529983-30.87794 0v0.042999a20.59996 20.59996 0 0 0 0 29.384943l30.53694 30.53594a21.281958 21.281958 0 0 0 30.151941 0l0.043-0.041999a21.239959 21.239959 0 0 0 0-30.067942l-29.853941-29.853941z m693.256646 29.811941a21.323958 21.323958 0 1 0-30.152941-30.152941l-30.152942 30.152941a21.281958 21.281958 0 0 0 30.152942 30.151941l30.152941-30.151941zM533.109959 21.325958a21.494958 21.494958 0 0 0-6.226988-15.09697 21.494958 21.494958 0 0 0-30.194941 0 21.494958 21.494958 0 0 0-6.226988 15.09697v42.649917c0 5.671989 2.259996 11.087978 6.226988 15.096971a21.494958 21.494958 0 0 0 30.194941 0 21.494958 21.494958 0 0 0 6.226988-15.097971V21.325958z" fill="#D3B99C" p-id="5853"></path><path d="M512.383999 938.318167l1.108998 0.086 1.108998 0.128 1.065998 0.17 1.065998 0.255999 1.023998 0.299 1.022998 0.339999 0.980998 0.384999 0.980998 0.425999 0.937998 0.511999 0.895998 0.511999 0.895999 0.553999 0.852998 0.639999 0.852998 0.639999 0.766999 0.681998 0.767998 0.724999 0.724999 0.767998 0.681999 0.766999 0.639998 0.852998 0.639999 0.852999 0.553999 0.895998 0.511999 0.895998 0.511999 0.937998 0.425999 0.979998 0.383999 0.981998 0.341 1.022998 0.298999 1.023998 0.256 1.065998 0.169999 1.065998 0.128 1.109998 0.086 1.107998 0.042 1.108998v42.690916l-0.042 1.023998-0.043 1.023998-0.128 1.022998-0.169999 0.980998-0.257 1.023998-0.254999 0.979999-0.342 0.938998-0.339999 0.937998-0.426999 0.937998-0.426999 0.895998-0.511999 0.895999-0.553999 0.852998-0.596999 0.852998-0.596999 0.809999-0.682999 0.767998-0.724998 0.724999-0.724999 0.724998-0.766998 0.681999-0.809999 0.596999-0.853998 0.596999-0.852998 0.554999-0.894999 0.511999-0.895998 0.425999-0.937998 0.426999-0.937998 0.339999-0.938998 0.342-0.979999 0.255999-1.023998 0.256-0.980998 0.169999-1.023998 0.128-1.022998 0.043-1.023998 0.043h-0.042l-1.109997-0.043-1.107998-0.085-1.109998-0.128-1.064998-0.170999-1.066998-0.256-1.022998-0.297999-1.023998-0.342-0.979998-0.382999-0.981998-0.426999-0.937998-0.511999-0.894999-0.511999-0.895998-0.553999-0.852998-0.639999-0.852998-0.639998-0.767999-0.681999-0.766998-0.724999-0.724999-0.767998-0.682999-0.766999-0.639998-0.852998-0.639999-0.852998-0.553999-0.895999-0.510999-0.894998-0.511999-0.938998-0.426999-0.979998-0.384-0.981998-0.339999-1.022998-0.299999-1.023998-0.255-1.065998-0.169999-1.065998-0.129-1.108998-0.085-1.108998-0.043-1.108998v-42.690916l0.043-1.023998 0.043-1.022998 0.128-1.023998 0.169999-0.979998 0.256-1.023998 0.255999-0.980998 0.341-0.938998 0.340999-0.937999 0.426999-0.937998 0.425999-0.895998 0.511999-0.894998 0.554999-0.852999 0.596999-0.852998 0.596999-0.809998 0.681999-0.767999 0.724998-0.724998 0.724999-0.725999 0.767998-0.681999 0.809999-0.596999 0.852998-0.596998 0.852998-0.554999 0.895999-0.510999 0.894998-0.426999 0.938998-0.426 0.937998-0.340999 0.937998-0.341999 0.980998-0.256 1.023998-0.254999 0.979998-0.171 1.023998-0.128 1.023998-0.043 1.022998-0.042 1.151998 0.042z m-0.596999 63.162877v-41.11292 41.11292zM196.185617 806.917424l1.022998 0.085 0.980998 0.128 1.023998 0.170999 0.979998 0.213 0.981998 0.255999 0.979998 0.341 0.938998 0.340999 0.895999 0.426999 0.937998 0.469999 0.852998 0.467999 0.895998 0.554999 0.809999 0.596999 0.809998 0.639999 0.767999 0.639999 0.767998 0.766998 0.809999 0.809998 0.724998 0.809999 0.639999 0.895998 0.639999 0.895998 0.595999 0.894999 0.511999 0.980998 0.469999 0.938998 0.425999 0.979998 0.383999 0.980998 0.297999 1.023998 0.299 1.023998 0.212999 1.022998 0.17 1.023998 0.129 1.065998 0.085 1.023998v2.089996l-0.085 1.065998-0.128 1.022998-0.17 1.023998-0.213999 1.065998-0.299 0.979998-0.297999 1.023998-0.383999 0.980998-0.426999 0.980998-0.468999 0.980998-0.511999 0.938998-0.596999 0.894999-0.639999 0.895998-0.639999 0.894998-0.723998 0.852998-0.809999 0.809999-30.152941 30.152941-0.767998 0.725998-0.767999 0.681999-0.809998 0.639999-0.852999 0.553999-0.852998 0.553999-0.852998 0.511999-0.937999 0.426999-0.895998 0.425999-0.979998 0.383999-0.938998 0.299-0.979998 0.255999-0.981998 0.255-1.022998 0.170999-1.023998 0.128-1.022998 0.085h-2.047996l-1.022998-0.085-1.023998-0.128-0.979998-0.169999-0.981998-0.256-0.979998-0.255999-0.980999-0.299-0.938998-0.383999-0.937998-0.425999-0.895998-0.426999-0.894998-0.511999-0.852999-0.553999-0.809998-0.553999-0.809999-0.639999-0.810998-0.681999-0.724999-0.725998h-0.042999l-0.767999-0.809999-0.724999-0.852998-0.681998-0.894998-0.596999-0.895998-0.596999-0.895999-0.511999-0.937998-0.469999-0.979998-0.425999-0.981998-0.382999-0.979998-0.342-1.023998-0.255999-0.980998-0.213-1.023998-0.169999-1.065998-0.128-1.023998-0.086-1.065998-0.042-1.022998 0.042-1.066998 0.086-1.022998 0.128-1.065998 0.169999-1.023998 0.213-1.023998 0.255999-1.022998 0.342-1.023998 0.382999-0.979998 0.426999-0.981998 0.468999-0.937998 0.511999-0.937998 0.596999-0.937998 0.596999-0.895999 0.681998-0.852998 0.724999-0.852998 0.767999-0.809999 30.194941-30.195941 0.767998-0.724998 0.767999-0.639999 0.809998-0.639999 0.809998-0.595999 0.852999-0.554999 0.895998-0.468999 0.895998-0.468999 0.937998-0.426999 0.937999-0.339999 0.980998-0.342 0.980998-0.255999 0.980998-0.213 0.980998-0.169999 1.023998-0.129 1.022998-0.085 1.023998-0.043 1.065998 0.043z m633.291763 0.213l1.066998 0.085999 1.022998 0.128 1.065998 0.17 1.023998 0.255999 0.979998 0.256 0.981998 0.340999 0.979998 0.383999 0.938998 0.427 0.937998 0.468999 0.895999 0.510999 0.895998 0.554999 0.852998 0.596998 0.852999 0.639999 0.766998 0.681999 0.767999 0.724998 30.152941 30.152942 0.724998 0.767998 0.681999 0.809998 0.681999 0.809999 0.597998 0.852998 0.553999 0.895998 0.511999 0.894999 0.468999 0.938998 0.426 0.937998 0.341999 0.979998 0.339999 0.981998 0.3 1.022998 0.212999 1.023998 0.17 1.023998 0.128 1.022998 0.084999 1.065998 0.043 1.066998-0.043 1.065998-0.084999 1.022998-0.128 1.066998-0.17 1.022998-0.213999 1.023998-0.298 0.979998-0.340999 0.981998-0.341999 0.979998-0.426 0.938998-0.469999 0.937998-0.510999 0.895999-0.553999 0.894998-0.597998 0.852998-0.681999 0.852999-0.681999 0.767998-0.724998 0.767999-0.767999 0.724998-0.767998 0.681999-0.852999 0.681999-0.852998 0.597998-0.894998 0.553999-0.895999 0.511999-0.937998 0.468999-0.937998 0.426-0.980998 0.341999-0.980998 0.339999-0.980998 0.3-1.023998 0.212999-1.022998 0.17-1.066998 0.128-1.022998 0.084999-1.065998 0.043-1.066998-0.043-1.065998-0.084999-1.022998-0.128-1.023998-0.17-1.023998-0.213999-1.022998-0.298-0.980998-0.340999-0.980998-0.341999-0.937998-0.426-0.938998-0.469999-0.894999-0.510999-0.895998-0.553999-0.852998-0.597998-0.809999-0.681999-0.809998-0.681999-0.767998-0.724998-30.152942-30.152941-0.724998-0.767999-0.681999-0.766998-0.639999-0.852999-0.596998-0.852998-0.554999-0.895998-0.510999-0.895999-0.469999-0.937998-0.426-0.937998-0.383999-0.980998-0.340999-0.980998-0.256-0.980998-0.255999-1.023998-0.17-1.065998-0.128-1.022998-0.085999-1.066998v-2.089996l0.085999-1.065998 0.128-1.022998 0.17-1.023998 0.255999-1.022998 0.256-1.023998 0.340999-0.979998 0.383999-0.981998 0.427-0.937998 0.468999-0.937998 0.510999-0.895999 0.554999-0.895998 0.596998-0.852998 0.639999-0.809999 0.681999-0.809998 0.724998-0.767999 0.767999-0.724998 0.809998-0.681999 0.809999-0.639999 0.852998-0.596998 0.895998-0.554999 0.895999-0.510999 0.937998-0.469999 0.937998-0.426 0.980998-0.383999 0.980998-0.340999 1.023998-0.256 1.022998-0.255999 1.023998-0.17 1.022998-0.128 1.066998-0.085999h2.089996z m-639.85975 26.826947l4.94699-4.94799-4.94699 4.94799z m639.006752-5.331989l3.027994 3.027994-3.027994-3.027994z m173.62366-338.16234l1.065998 0.043 1.023998 0.043 1.065998 0.128 1.023998 0.212999 1.022998 0.213 0.980998 0.298999 1.023998 0.298 0.937999 0.383999 0.979998 0.425999 0.896998 0.469999 0.937998 0.510999 0.852998 0.554999 0.852999 0.596999 0.852998 0.639999 0.809998 0.681998 0.767999 0.724999 0.724999 0.767998 0.681998 0.809999 0.639999 0.852998 0.596999 0.852998 0.553999 0.852999 0.511999 0.937998 0.469999 0.895998 0.425999 0.979998 0.383999 0.939998 0.298 1.022998 0.298999 0.979999 0.213 1.023998 0.212999 1.023998 0.128 1.065997 0.043 1.023998 0.043 1.065998-0.043 1.065998-0.043 1.023998-0.128 1.065998-0.212999 1.022998-0.213 1.023998-0.298999 0.979998-0.298 1.023998-0.383999 0.938999-0.426999 0.979998-0.468999 0.895998-0.511999 0.938998-0.553999 0.852998-0.596999 0.851999-0.639999 0.852998-0.681998 0.809998-0.724999 0.767999-0.767999 0.724999-0.809998 0.682998-0.852998 0.639999-0.852999 0.596999-0.852998 0.553999-0.937998 0.511999-0.895998 0.469999-0.980998 0.425999-0.937999 0.382999-1.023998 0.299-0.979998 0.297999-1.023998 0.214-1.023998 0.212999-1.065998 0.128-1.023998 0.043-1.065998 0.042H959.599126l-1.065998-0.042-1.023998-0.043-1.065998-0.128-1.022998-0.212999-1.023998-0.214-0.979998-0.297999-1.023998-0.299-0.938998-0.382999-0.979998-0.426999-0.895999-0.469999-0.938998-0.509999-0.852998-0.554999-0.852998-0.596999-0.852999-0.639999-0.809998-0.682998-0.767999-0.724999-0.724998-0.766999-0.681999-0.809998-0.639999-0.853998-0.596999-0.851999-0.553998-0.852998-0.511999-0.938998-0.47-0.894998-0.425999-0.980998-0.382999-0.938999-0.298999-1.022998-0.299-0.980998-0.212999-1.023998-0.213-1.022998-0.128-1.065998-0.043-1.023998-0.042-1.065998 0.042-1.065998 0.043-1.023998 0.128-1.065997 0.213-1.023998 0.212999-1.022998 0.299-0.980999 0.298999-1.023998 0.382999-0.937998 0.426999-0.980998 0.469-0.895998 0.511999-0.937998 0.553998-0.852999 0.596999-0.852998 0.639999-0.852998 0.681999-0.809999 0.724998-0.767998 0.767999-0.724999 0.809998-0.681998 0.852999-0.639999 0.852998-0.596999 0.852998-0.554999 0.938998-0.510999 0.894999-0.469999 0.980998-0.425999 0.938998-0.383999 1.022998-0.298 0.980998-0.298999 1.023998-0.213 1.022998-0.212999 1.065998-0.128 1.023998-0.043 1.065998-0.043h42.649916z m-938.231167 0l1.108998 0.043 1.065998 0.085 1.065998 0.128 1.066998 0.169999 1.022998 0.257 0.980998 0.255999 1.023998 0.34 0.937998 0.384999 0.937998 0.425999 0.937998 0.469999 0.895998 0.510999 0.852999 0.553999 0.852998 0.597999 0.767999 0.639999 0.809998 0.681998 0.724999 0.681999 0.681998 0.724998 0.682999 0.809999 0.639999 0.767998 0.596998 0.852999 0.553999 0.852998 0.511999 0.895998 0.468999 0.937998 0.426 0.937999 0.383999 0.937998 0.341999 1.023998 0.255 0.980998 0.255999 1.023998 0.17 1.065998 0.129 1.065998 0.084999 1.065998 0.043 1.151997-0.043 1.065998-0.042999 1.023998-0.127 1.065998-0.214 1.022998-0.212999 1.023998-0.298 0.979998-0.298999 1.023998-0.383999 0.938999-0.426 0.979998-0.469999 0.895998-0.510999 0.938998-0.554999 0.852998-0.596998 0.851999-0.639999 0.852998-0.681999 0.809998-0.724998 0.767999-0.767999 0.724999-0.809998 0.682998-0.852999 0.639999-0.852998 0.596999-0.852998 0.553999-0.937999 0.511999-0.895998 0.469999-0.979998 0.425999-0.938998 0.382999-1.023998 0.299-0.979998 0.297999-1.023998 0.214-1.023998 0.212999-1.065998 0.128-1.022998 0.043-1.066998 0.042H20.770959l-1.023998-0.042-1.022998-0.043-1.023998-0.128-0.979998-0.169999-1.023998-0.257-0.980998-0.254999-0.937998-0.342-0.938998-0.339999-0.937998-0.426999-0.895998-0.426999-0.894999-0.511999-0.852998-0.553999-0.852998-0.596999-0.809999-0.596999-0.767998-0.682999-0.724999-0.724998-0.724998-0.724999-0.682999-0.766998-0.596999-0.809999-0.596999-0.853998-0.553999-0.852998-0.511999-0.894999-0.426999-0.895998-0.425999-0.937998-0.340999-0.937998-0.341-0.938998-0.255999-0.979999-0.256-1.023998-0.169999-0.980998-0.129-1.023998-0.042-1.022998L0.001 512.340999v-0.042l0.043-1.109997 0.085-1.107998 0.127999-1.109998 0.17-1.064998 0.256-1.066998 0.298999-1.022998 0.340999-1.023998 0.384-0.979998 0.425999-0.981998 0.511999-0.937998 0.511999-0.894999 0.553999-0.895998 0.639999-0.852998 0.639998-0.852998 0.681999-0.767999 0.724999-0.766998 0.767998-0.724999 0.767999-0.682999 0.852998-0.639998 0.852998-0.639999 0.894998-0.553999 0.895999-0.510999 0.937998-0.511999 0.980998-0.426999 0.980998-0.384 1.023998-0.339999 1.022998-0.299999 1.065998-0.255 1.066998-0.169999 1.107998-0.129 1.109998-0.085 1.107997-0.043h42.179918z m895.83825 21.324958h42.136918-42.136918z m-937.762168 0h41.624919-41.624919z m143.939719-367.889281l1.023998 0.086 1.065998 0.128 1.023998 0.169999 1.022998 0.213 1.023998 0.255999 1.022998 0.342 0.980998 0.382999 0.980998 0.426999 0.937998 0.468999 0.938998 0.511999 0.937998 0.596999 0.895999 0.596999 0.852998 0.681998 0.852998 0.724999 0.809999 0.767999 29.853941 29.853941 0.724999 0.767999 0.724999 0.809998 0.639998 0.852998 0.639999 0.895999 0.553999 0.895998 0.511999 0.894998 0.468999 0.937998 0.383999 0.980998 0.384 0.938999 0.297999 0.979998 0.298999 1.023998 0.213 0.980998 0.17 1.023998 0.127999 1.022998 0.043 0.980998 0.043 1.023998-0.043 1.022998-0.043 1.023998-0.126999 1.022998-0.171 1.023998-0.213 0.979998-0.298999 0.981998-0.297999 0.979998-0.384 0.981998-0.383999 0.937998-0.469999 0.937999-0.510999 0.938998-0.553999 0.894998-0.639999 0.852998-0.639998 0.852999-0.724999 0.852998-0.724999 0.767999-0.043 0.041999-0.766998 0.724999-0.809998 0.682999-0.809999 0.639998-0.853998 0.596999-0.895998 0.553999-0.894999 0.511999-0.937998 0.468999-0.938998 0.425999-0.979998 0.384-0.981998 0.341999-1.022998 0.255-1.023998 0.255999-1.022998 0.17-1.023998 0.128999-1.065998 0.085h-2.089996l-1.065998-0.085-1.023998-0.127999-1.065998-0.17-1.022998-0.256999-0.980998-0.255-0.980998-0.341999-0.980998-0.384-0.938998-0.425999-0.937999-0.469999-0.894998-0.509999-0.895998-0.554999-0.852998-0.596999-0.852999-0.639998-0.767998-0.682999-0.766999-0.724999-30.53694-30.53594-0.724999-0.767998-0.681998-0.767999-0.639999-0.809998-0.554999-0.852999-0.553999-0.852998-0.511999-0.852998-0.425999-0.937999-0.426999-0.895998-0.383999-0.979998-0.298-0.938998-0.255999-0.979998-0.256-0.981998-0.17-1.022998-0.127999-1.023998-0.086-1.022998v-2.047996l0.086-1.022998 0.126999-1.023998 0.171-0.979998 0.256-0.981998 0.255999-0.979998 0.298-0.980999 0.383999-0.938998 0.426999-0.937998 0.425999-0.895998 0.511999-0.894998 0.553999-0.852999 0.554999-0.809998 0.639999-0.809999 0.681998-0.810998 0.724999-0.724999v-0.042999l0.809998-0.767999 0.852999-0.724999 0.895998-0.681998 0.895998-0.596999 0.894998-0.596999 0.937999-0.511999 0.980998-0.469999 0.980998-0.425999 0.980998-0.382999 1.023998-0.342 0.979998-0.255999 1.023998-0.213 1.066998-0.169999 1.022998-0.128 1.065998-0.086 1.023998-0.042 1.065998 0.042z m693.640645-0.213l1.022998 0.085 1.066998 0.128 1.022998 0.171 1.023998 0.212999 0.979998 0.299 0.981998 0.339999 0.979998 0.341999 0.938998 0.426999 0.937998 0.469 0.895999 0.511999 0.894998 0.553998 0.852998 0.596999 0.852999 0.681999 0.767998 0.682999 0.767999 0.724998 0.724998 0.767999 0.681999 0.766998 0.681999 0.852999 0.597998 0.852998 0.553999 0.895998 0.511999 0.894998 0.468999 0.938999 0.426 0.937998 0.341999 0.979998 0.339999 0.981998 0.3 0.979998 0.212999 1.023998 0.17 1.023998 0.128 1.065998 0.084999 1.023998 0.043 1.065998-0.043 1.065998-0.084999 1.065998-0.128 1.023998-0.17 1.023998-0.213999 1.022998-0.298 1.023998-0.340999 0.979998-0.341999 0.981998-0.426 0.937998-0.469999 0.937998-0.510999 0.895998-0.553999 0.894999-0.597998 0.852998-0.681999 0.809998-0.681999 0.810999-0.724998 0.767998-30.152941 30.151941-0.767999 0.724999-0.766998 0.682999-0.852999 0.639998-0.852998 0.596999-0.895998 0.553999-0.895999 0.511999-0.937998 0.468999-0.937998 0.425999-0.980998 0.384-0.980998 0.341999-0.980998 0.255-1.023998 0.255999-1.065998 0.17-1.022998 0.128999-1.066998 0.085h-2.089996l-1.065998-0.085-1.022998-0.127999-1.023998-0.17-1.022998-0.256999-1.023998-0.255-0.979998-0.341999-0.981998-0.384-0.937998-0.425999-0.937998-0.469999-0.895999-0.509999-0.895998-0.554999-0.852998-0.596999-0.809999-0.639998-0.809998-0.682999-0.767999-0.724999-0.724998-0.766998-0.681999-0.809999-0.639999-0.809998-0.596998-0.853998-0.554999-0.895999-0.510999-0.894998-0.469999-0.937998-0.426-0.938998-0.383999-0.979998-0.340999-0.981998-0.256-1.022998-0.255999-1.023998-0.17-1.022998-0.128-1.023998-0.085999-1.065998v-2.089996l0.085999-1.065998 0.128-1.023998 0.17-1.065998 0.255999-1.022998 0.256-0.980998 0.340999-0.980998 0.383999-0.980998 0.427-0.938998 0.468999-0.937999 0.510999-0.894998 0.554999-0.895998 0.596998-0.852998 0.639999-0.852999 0.681999-0.767998 0.724998-0.766999 30.152942-30.152941 0.767998-0.724998 0.809998-0.682999 0.809999-0.681999 0.852998-0.596999 0.895998-0.553998 0.894999-0.511999 0.938998-0.47 0.937998-0.425999 0.979998-0.340999 0.981998-0.340999 1.022998-0.299 1.023998-0.212999 1.023998-0.17 1.022998-0.129 1.065998-0.085 1.066998-0.043 1.065998 0.043z m-31.048939 51.2639l2.473995-2.473995-2.473995 2.473995zM512.852998 0.045l1.023998 0.042 1.065998 0.128 1.022998 0.212999 1.023998 0.214 0.979998 0.297999 1.023998 0.299 0.938999 0.383999 0.979998 0.425999 0.895998 0.469999 0.938998 0.510999 0.852998 0.554999 0.851999 0.596999 0.852998 0.639999 0.809998 0.681998 0.767999 0.724999 0.724999 0.766998 0.682998 0.809999 0.639999 0.853998 0.596999 0.852998 0.553999 0.852999 0.511999 0.937998 0.469999 0.895998 0.425999 0.979998 0.382999 0.938998 0.299 1.022998 0.297999 0.980999 0.214 1.023998 0.212999 1.022998 0.128 1.066997 0.043 1.022998 0.042 1.065998v42.649917l-0.042 1.065998-0.043 1.022998-0.128 1.065998-0.212999 1.023998-0.214 1.023998-0.297999 0.979998-0.299 1.023998-0.382999 0.937998-0.426999 0.980998-0.469999 0.895998-0.509999 0.937999-0.554999 0.852998-0.596999 0.852998-0.639999 0.852999-0.682998 0.809998-0.724999 0.767999-0.766999 0.724998-0.809998 0.681999-0.853998 0.639999-0.851999 0.596998-0.852998 0.554999-0.938998 0.511999-0.894998 0.468999-0.980998 0.426-0.938999 0.383999-1.022998 0.298999-0.980998 0.298-1.023998 0.212999-1.022998 0.214-1.065998 0.127-1.023998 0.042999-1.065998 0.043-1.065998-0.043-1.023998-0.042999-1.065997-0.127-1.023998-0.214-1.022998-0.212999-0.980999-0.298-1.023998-0.298999-0.937998-0.383999-0.980998-0.426-0.895998-0.469999-0.937998-0.510999-0.852999-0.554999-0.852998-0.596998-0.852998-0.639999-0.809999-0.681999-0.767998-0.724998-0.724999-0.767999-0.681998-0.809998-0.639999-0.852999-0.596999-0.852998-0.554999-0.852998-0.510999-0.937999-0.469999-0.895998-0.425999-0.979998-0.383999-0.938998-0.298-1.023998-0.298999-0.979998-0.213-1.023998-0.212999-1.023998-0.128-1.065998-0.043-1.022998-0.043-1.066998V21.325958l0.043-1.065998 0.043-1.022998 0.128-1.066997 0.212999-1.022998 0.213-1.023998 0.298999-0.979999 0.298-1.023998 0.383999-0.937998 0.425999-0.980998 0.469999-0.895998 0.510999-0.937998 0.554999-0.852999 0.596999-0.852998 0.639999-0.852998 0.681998-0.809999 0.724999-0.767998 0.767998-0.724999 0.809999-0.682998 0.852998-0.639999 0.852998-0.595999 0.852999-0.554999 0.937998-0.511999 0.895998-0.468999 0.979998-0.425999 0.939998-0.383999 1.022998-0.299 0.979999-0.297999 1.023998-0.214 1.023998-0.212999 1.065997-0.128 1.023998-0.042L511.787 0.002l1.065998 0.043z m-1.065998 21.536958v42.136918V21.581958zM277.218459 447.814125a21.323958 21.110959 90 1 0 42.221917 0 21.323958 21.110959 90 1 0-42.221917 0z" fill="#FFB28E" p-id="5854"></path></svg>