<?xml version="1.0" standalone="no"?><!DOCTYPE svg PUBLIC "-//W3C//DTD SVG 1.1//EN" "http://www.w3.org/Graphics/SVG/1.1/DTD/svg11.dtd"><svg t="1728219222903" class="icon" viewBox="0 0 1024 1024" version="1.1" xmlns="http://www.w3.org/2000/svg" p-id="4621" xmlns:xlink="http://www.w3.org/1999/xlink" width="200" height="200"><path d="M803.4 234.8c-28.7 0-56.1 5.9-80.9 16.5C706.2 150.2 618.6 73 512.9 73c-92.6 0-171.3 59.3-200.4 141.9-24.8-10.1-51.8-15.7-80.2-15.7C115.1 199.2 20 294.3 20 411.6c0 117.3 95.1 212.3 212.3 212.3 5.3 0 10.6-0.2 15.8-0.6v0.6h652.4c65.2-34.8 109.6-103.4 109.6-182.5 0-114.1-92.5-206.6-206.7-206.6zM515 709c-7.9 0-78.5 88-78.5 131.3s35.1 76.8 78.5 76.8c43.3 0 78.5-33.5 78.5-76.8S523.7 709 515 709zM802 709c-7.9 0-78.5 88-78.5 131.3s35.1 76.8 78.5 76.8 78.5-33.5 78.5-76.8S810.7 709 802 709zM275.4 649.6L159.7 824.1l63.9 9-63.9 140L330 777.4l-86.9-2.1z" fill="#9FDAFF" p-id="4622"></path></svg>