<?xml version="1.0" standalone="no"?><!DOCTYPE svg PUBLIC "-//W3C//DTD SVG 1.1//EN" "http://www.w3.org/Graphics/SVG/1.1/DTD/svg11.dtd"><svg t="1728527046879" class="icon" viewBox="0 0 1024 1024" version="1.1" xmlns="http://www.w3.org/2000/svg" p-id="5691" xmlns:xlink="http://www.w3.org/1999/xlink" width="200" height="200"><path d="M794.516211 780.934737H229.483789C102.938947 780.934737 0 677.995789 0 551.424c0-126.517895 102.938947-229.483789 229.483789-229.483789 8.353684 0 16.707368 0.485053 25.034106 1.401263C265.970526 187.715368 380.092632 80.842105 518.629053 80.842105c138.186105 0 252.011789 106.307368 264.030315 241.448421 3.934316-0.242526 7.895579-0.350316 11.856843-0.350315 126.544842 0 229.483789 102.938947 229.483789 229.483789s-102.938947 229.510737-229.483789 229.510737z" fill="#90E0E3" p-id="5692"></path><path d="M644.742737 763.661474c-78.686316 98.573474-91.971368 154.731789-39.855158 168.421052 52.116211 13.689263 65.401263-42.442105 39.855158-168.421052zM512 570.772211l-51.253895 37.241263 19.56379 60.254315h63.38021l19.56379-60.254315zM781.473684 705.509053l-51.253895 37.241263 19.56379 60.254316h63.38021l19.56379-60.254316z" fill="#2490F7" p-id="5693"></path><path d="M386.074947 804.486737h3.826527a8.838737 8.838737 0 0 1 12.503579-12.476632l12.8 12.8h21.611789l-20.803368-20.803368a8.838737 8.838737 0 0 1 12.476631-12.503579l20.803369 20.830316v-22.096842l-12.8-12.8a8.838737 8.838737 0 1 1 12.476631-12.503579v-3.664842a8.811789 8.811789 0 1 1 17.623579 0v3.826526a8.838737 8.838737 0 0 1 12.476632 12.503579l-12.8 12.8v22.096842l20.803368-20.830316a8.838737 8.838737 0 0 1 12.503579 12.503579l-20.830316 20.803368h22.743579l12.8-12.8a8.838737 8.838737 0 0 1 12.476632 12.476632h3.368421a8.811789 8.811789 0 1 1 0 17.623579h-3.826526a8.838737 8.838737 0 1 1-12.503579 12.476632l-12.8-12.8h-22.096842l20.803368 20.803368a8.838737 8.838737 0 1 1-12.476632 12.476632l-20.803368-20.803369v22.258526l12.8 12.8a8.838737 8.838737 0 0 1-12.476632 12.476632v3.853474a8.811789 8.811789 0 0 1-17.623579 0v-3.503158a8.838737 8.838737 0 1 1-12.476631-12.503579l12.8-12.8v-22.743579l-20.803369 20.803368a8.811789 8.811789 0 1 1-12.503578-12.476631l20.830315-20.803369h-22.096842l-12.8 12.8a8.838737 8.838737 0 1 1-12.503579-12.476631h-3.503158a8.811789 8.811789 0 0 1 0-17.623579z" fill="#5AC9FF" p-id="5694"></path><path d="M321.374316 763.661474c-78.686316 98.573474-91.971368 154.731789-39.855158 168.421052 52.116211 13.689263 65.401263-42.442105 39.855158-168.421052z" fill="#2490F7" p-id="5695"></path></svg>