<?xml version="1.0" standalone="no"?><!DOCTYPE svg PUBLIC "-//W3C//DTD SVG 1.1//EN" "http://www.w3.org/Graphics/SVG/1.1/DTD/svg11.dtd"><svg t="1744464947650" class="icon" viewBox="0 0 1024 1024" version="1.1" xmlns="http://www.w3.org/2000/svg" p-id="4398" id="mx_n_1744464947650" data-spm-anchor-id="a313x.search_index.0.i27.6a923a81TLlPmK" xmlns:xlink="http://www.w3.org/1999/xlink" width="200" height="200"><path d="M910.9 958.5H278.3c-29.9 0-54.2-24.3-54.2-54.2v-787c0-29.9 24.3-54.2 54.2-54.2h491.3c10 0 18.1 8.1 18.1 18.1v135.6H947c10 0 18.1 8.1 18.1 18.1v669.4c0 29.8-24.3 54.2-54.2 54.2zM278.3 99.3c-10 0-18.1 8.1-18.1 18.1v786.9c0 10 8.1 18.1 18.1 18.1h632.6c10 0 18.1-8.1 18.1-18.1V252.9H769.5c-10 0-18.1-8.1-18.1-18.1V99.3H278.3z" fill="#fc5777" p-id="4399" data-spm-anchor-id="a313x.search_index.0.i28.6a923a81TLlPmK" class="selected"></path><path d="M947.4 253H769.9c-10 0-18.1-8.1-18.1-18.1V81.2c0-7.1 4.1-13.5 10.6-16.4 6.4-2.9 14-1.9 19.3 2.8L801.9 85c0.2 0.1 0.3 0.3 0.5 0.4l156.9 135.8c5.7 4.9 7.7 12.9 5.1 20-2.7 7.1-9.4 11.8-17 11.8zM788 216.8h111l-111-96.1v96.1zM664.5 781.5H79.4c-11.4 0-20.7-9.3-20.7-20.7V490.6c0-11.4 9.3-20.7 20.7-20.7h585.2c11.4 0 20.7 9.3 20.7 20.7v270.2c-0.1 11.4-9.4 20.7-20.8 20.7z" fill="#fc5777" p-id="4400" data-spm-anchor-id="a313x.search_index.0.i29.6a923a81TLlPmK" class="selected"></path><path d="M110.7 701.8l23.9-28.7c14.9 13.8 34.6 23 52.8 23 21.6 0 33.2-9.3 33.2-23.9 0-15.5-12.6-20.2-31.2-28.1l-27.8-11.8c-21.1-8.7-42.2-25.6-42.2-55.9 0-34 29.8-60.1 71.9-60.1 24.2 0 48.3 9.6 65.2 26.7l-21.1 26.1c-13.2-11-27-17.1-44.1-17.1-18.3 0-30.1 8.1-30.1 21.9 0 14.9 14.9 20.2 32.6 27.3l27.3 11.5c25.3 10.4 41.9 26.4 41.9 56.5 0 34-28.4 62.9-76.4 62.9-27.9 0.1-55.7-10.9-75.9-30.3zM272.8 520.3h43.6l27.5 101.2c6.5 23 10.7 43.8 17.4 67.2h1.4c6.5-23.3 11.2-44.1 17.7-67.2l27-101.2h42.2l-63.8 207.9h-49.5l-63.5-207.9zM459.7 625.1c0-68.6 44.4-108.8 99.8-108.8 30.1 0 50.9 12.9 64.3 26.7l-22.2 26.4c-10.1-9.8-21.9-17.4-40.7-17.4-34.6 0-58.7 27-58.7 71.7 0 45.2 20.8 72.5 61.5 72.5 10.1 0 20.2-2.8 26.1-7.9v-41H553v-34h73.9v93.9c-14.1 13.8-38.5 25-67.4 25-56.8 0-99.8-37.7-99.8-107.1z" fill="#FFFFFF" p-id="4401"></path></svg>